<svg width="15" height="152" viewBox="0 0 15 152" fill="none" xmlns="http://www.w3.org/2000/svg">
<path d="M1.80957 56.7589H12.7966" stroke="white"/>
<path d="M12.7966 21.0513V140.317" stroke="white"/>
<path d="M1.80957 147.7H12.7966" stroke="white"/>
<path d="M1.80957 21.0513V140.317" stroke="white"/>
<path d="M1.80957 38.0562H12.7966" stroke="white"/>
<path d="M11.2629 147.7V147.867C10.7098 148.841 10.3221 149.9 10.1157 151H13.0098C12.8033 149.9 12.4157 148.841 11.8626 147.867V147.7H11.2629Z" fill="white" stroke="white"/>
<path d="M7.00316 147.7V147.867C6.45008 148.841 6.06243 149.9 5.85602 151H8.75006C8.54365 149.9 8.156 148.841 7.60292 147.867V147.7H7.00316Z" fill="white" stroke="white"/>
<path d="M2.74357 147.7V147.867C2.19049 148.841 1.80284 149.9 1.59644 151H4.49047C4.28407 149.9 3.89642 148.841 3.34334 147.867V147.7H2.74357Z" fill="white" stroke="white"/>
<path d="M4.05505 144.596H10.551" stroke="white"/>
<path d="M13.4478 143.141L13.4292 142.956L13.4085 142.766L13.3854 142.574L13.3597 142.38L13.331 142.184L13.2991 141.989L13.2635 141.793L13.2242 141.6L13.1806 141.408L13.1326 141.22L13.0798 141.035L13.0219 140.856L12.9586 140.682L12.8897 140.515L12.8152 140.354L12.7361 140.201L12.653 140.056L12.5668 139.918L12.4782 139.789L12.3881 139.668L12.2973 139.555L12.2065 139.451L12.1165 139.356L12.0282 139.27L11.9423 139.194L11.8597 139.127L11.781 139.07L11.7219 139.109L11.6641 139.168L11.6048 139.233L11.5444 139.304L11.4834 139.381L11.422 139.464L11.3607 139.553L11.2996 139.649L11.2393 139.751L11.18 139.859L11.1222 139.974L11.0661 140.096L11.0121 140.224L10.9605 140.36L10.9116 140.502L10.8655 140.653L10.8221 140.813L10.7817 140.984L10.7441 141.167L10.7095 141.362L10.678 141.57L10.6494 141.794L10.6239 142.034L10.6016 142.291L10.5826 142.565L10.5667 142.86L10.5542 143.174L10.5512 143.501V143.828V144.155V144.481V144.808V145.134V145.461V145.788V146.114V146.441V146.767V147.094V147.421L10.5817 147.7H10.7951H11.0086H11.222H11.4354H11.6489H11.8623H12.0758H12.2892H12.5027H12.7161H12.9295H13.143H13.3564L13.4479 147.509V147.173V146.837V146.501V146.165V145.829V145.493V145.157V144.821V144.485V144.15V143.814V143.478L13.4478 143.141Z" fill="white" stroke="white"/>
<path d="M1.15846 143.141L1.17708 142.956L1.19776 142.766L1.22081 142.574L1.24649 142.38L1.27519 142.184L1.30713 141.989L1.34266 141.793L1.38201 141.6L1.42557 141.408L1.47359 141.22L1.52638 141.035L1.58424 140.856L1.64752 140.682L1.71646 140.515L1.79089 140.354L1.87005 140.201L1.95312 140.056L2.03933 139.918L2.12788 139.789L2.21798 139.668L2.30882 139.555L2.39962 139.451L2.48957 139.356L2.57789 139.27L2.66378 139.194L2.74645 139.127L2.82508 139.07L2.88419 139.109L2.94206 139.168L3.00133 139.233L3.06167 139.304L3.1227 139.381L3.18408 139.464L3.24545 139.553L3.30648 139.649L3.3668 139.751L3.42608 139.859L3.48394 139.974L3.54009 140.096L3.59413 140.224L3.64568 140.36L3.69459 140.502L3.74073 140.653L3.78404 140.813L3.82452 140.984L3.86205 141.167L3.89664 141.362L3.92823 141.57L3.9568 141.794L3.98225 142.034L4.00452 142.291L4.02362 142.565L4.03947 142.86L4.05202 143.174L4.05496 143.501V143.828V144.155V144.481V144.808V145.134V145.461V145.788V146.114V146.441V146.767V147.094V147.421L4.0245 147.7H3.81106H3.59762H3.38418H3.17073H2.95729H2.74385H2.5304H2.31695H2.10352H1.89008H1.67663H1.46319H1.24974L1.15826 147.509V147.173V146.837V146.501V146.165V145.829V145.493V145.157V144.821V144.485V144.15V143.814V143.478V143.142L1.15846 143.141Z" fill="white" stroke="white"/>
<path d="M2.32867 22.4743H12.2776" stroke="white"/>
<path d="M2.32867 13.6476H12.2776" stroke="white"/>
<path d="M1.35138 12.6687H13.2548" stroke="white"/>
<path d="M3.62207 4.41843H10.984" stroke="white"/>
<path d="M12.2775 13.5596V14.2191V14.8785V15.538V16.1974V16.8569V17.5163V18.1758V18.8352V19.4947V20.1541V20.8136V21.473V22.1325V22.7919L12.3037 23.3256L12.4581 23.2212L12.6039 23.1142L12.7408 23.0056L12.8688 22.8967L12.9874 22.7883L13.0966 22.6816L13.1959 22.5777L13.2852 22.4776L13.3642 22.3824L13.4327 22.2932L13.4905 22.211L13.5372 22.1368L13.5727 22.0719L13.5966 22.0172L13.6061 21.7945V21.212V20.6296V20.0471V19.4646V18.8822V18.2997V17.7172V17.1347V16.5523V15.9698V15.3874V14.8049V14.2224V13.6399L13.5939 13.3263L13.567 13.2872L13.5371 13.2491L13.5041 13.2124L13.4682 13.1774L13.4293 13.1443L13.3878 13.1135L13.3439 13.0854L13.2977 13.0602L13.2495 13.0382L13.1998 13.0195L13.1488 13.0043L13.097 12.9929L13.0447 12.9851L12.9923 12.981L12.9402 12.9805L12.8888 12.9835L12.8384 12.99L12.7893 12.9997L12.7418 13.0125L12.6961 13.0279L12.6525 13.0458L12.6392 13.0785L12.6339 13.1164L12.6261 13.1543L12.6157 13.1921L12.6025 13.2295L12.5867 13.2663L12.5683 13.3022L12.5475 13.3367L12.5242 13.3698L12.4987 13.4013L12.4713 13.4308L12.442 13.4582L12.4112 13.4833L12.3791 13.506L12.3459 13.5263L12.312 13.5441L12.2775 13.5594L12.2775 13.5596Z" stroke="white"/>
<path d="M2.32863 13.5596V14.2191V14.8785V15.538V16.1974V16.8569V17.5163V18.1758V18.8352V19.4947V20.1541V20.8136V21.473V22.1325V22.7919L2.30236 23.3256L2.14802 23.2212L2.00224 23.1142L1.86525 23.0056L1.73731 22.8967L1.61865 22.7883L1.50953 22.6816L1.4102 22.5777L1.3209 22.4776L1.24186 22.3824L1.17336 22.2932L1.11561 22.211L1.06888 22.1368L1.03341 22.0719L1.00949 22.0172L1 21.7945V21.212V20.6296V20.0471V19.4646V18.8822V18.2997V17.7172V17.1347V16.5523V15.9698V15.3874V14.8049V14.2224V13.6399L1.0122 13.3263L1.03907 13.2872L1.06901 13.2491L1.102 13.2124L1.13794 13.1774L1.17672 13.1443L1.21819 13.1135L1.26215 13.0854L1.30835 13.0602L1.35649 13.0382L1.40622 13.0195L1.45719 13.0043L1.50904 12.9929L1.56136 12.9851L1.61375 12.981L1.66584 12.9805L1.71728 12.9835L1.76766 12.99L1.81674 12.9997L1.86423 13.0125L1.9099 13.0279L1.95356 13.0458L1.96688 13.0785L1.97218 13.1164L1.97996 13.1543L1.99039 13.1921L2.00353 13.2295L2.01932 13.2663L2.03771 13.3022L2.05857 13.3367L2.08184 13.3698L2.1073 13.4013L2.13476 13.4308L2.16404 13.4582L2.19485 13.4833L2.22697 13.506L2.26015 13.5263L2.29408 13.5441L2.32855 13.5594L2.32863 13.5596Z" stroke="white"/>
<path d="M13.2689 13.0465L13.2761 12.9649L13.2779 12.8827L13.2737 12.8005L13.264 12.719L13.1961 12.4543L13.0391 11.8841L12.8822 11.314L12.7252 10.7437L12.5683 10.1735L12.4114 9.60333L12.2544 9.03312L12.0975 8.46294L11.9405 7.89273L11.7836 7.32252L11.6267 6.75231L11.4697 6.18214L11.3128 5.61193L11.1559 5.04172L10.9989 4.47151L10.9533 4.32844L10.915 4.22296L10.8725 4.11168L10.826 3.99545L10.7756 3.87508L10.7214 3.75136L10.6636 3.62509L10.6023 3.49713L10.5376 3.36827L10.4695 3.2393L10.3983 3.11109L10.3241 2.98435L10.2469 2.85999L10.1669 2.73879L10.0843 2.62151L9.99905 2.50866L9.9115 2.40015L9.82179 2.29597L9.73008 2.19613L9.63659 2.10057L9.54147 2.00922L9.44495 1.92212L9.34718 1.83922L9.24836 1.76042L9.14867 1.6858L9.04829 1.61524L8.94742 1.54874L8.84624 1.48623L8.74492 1.42772L8.64365 1.37324L8.54247 1.32263L8.44145 1.27584L8.34061 1.23287L8.23999 1.19363L8.13964 1.1581L8.03961 1.12623L7.93991 1.09789L7.84062 1.07308L7.74175 1.05175L7.64335 1.03384L7.54547 1.01928L7.44814 1.00802L7.35141 1H7.25515L7.15841 1.00802L7.06109 1.01928L6.9632 1.03384L6.8648 1.05175L6.76594 1.07308L6.66664 1.09789L6.56695 1.12623L6.46691 1.1581L6.36656 1.19363L6.26595 1.23287L6.1651 1.27584L6.06407 1.32263L5.9629 1.37324L5.86163 1.42772L5.76032 1.48623L5.65913 1.54874L5.55826 1.61524L5.45789 1.6858L5.3582 1.76042L5.25937 1.83922L5.1616 1.92212L5.06507 2.00922L4.96996 2.10057L4.87647 2.19613L4.78477 2.29597L4.69505 2.40015L4.6075 2.50866L4.52229 2.62151L4.43963 2.73879L4.35964 2.85999L4.28247 2.98435L4.20822 3.11109L4.13701 3.2393L4.06897 3.36827L4.00424 3.49713L3.94291 3.62509L3.88511 3.75136L3.83095 3.87508L3.78058 3.99545L3.73408 4.11168L3.69166 4.22296L3.65336 4.32844L3.6077 4.47151L3.45076 5.04172L3.29381 5.61193L3.13687 6.18214L2.97994 6.75231L2.82301 7.32252L2.66606 7.89273L2.50912 8.46294L2.35218 9.03312L2.19525 9.60333L2.03832 10.1735L1.88137 10.7437L1.72443 11.314L1.56749 11.8841L1.41056 12.4543L1.34264 12.719L1.33286 12.8005L1.32874 12.8827L1.33051 12.9649L1.33769 13.0465" stroke="white"/>
</svg>
