<svg width="14" height="152" viewBox="0 0 14 152" fill="none" xmlns="http://www.w3.org/2000/svg">
<path d="M1 28.1014H12.9718" stroke="white"/>
<path d="M1 62.6815H12.9718" stroke="white"/>
<path d="M1 39.8802H12.9718" stroke="white"/>
<path d="M6.9859 1V24.9273" stroke="white"/>
<path d="M10.4547 151H10.1406H9.82647H9.51235H9.19826H8.88414H8.57003H8.25592H7.94181H7.62771H7.3136H6.9995H6.68538H6.37128H6.05717H5.74307H5.42895H5.11485H4.80074H4.48664H4.17252H3.85842H3.54431L3.72191 150.02L3.99287 148.956L4.31216 147.904L4.67891 146.867L5.09196 145.849L5.54985 144.852L5.69119 144.368L5.59136 144.229L5.49608 144.086L5.40532 143.938L5.31904 143.784L5.2372 143.626L5.15976 143.463L5.0867 143.295L5.01795 143.121L4.9535 142.943L4.89329 142.759L4.83732 142.57L4.7855 142.375L4.73785 142.176L4.69429 141.97L4.65479 141.76L4.61933 141.544L4.58784 141.322L4.56032 141.095L4.53669 140.862L4.51695 140.624L4.50105 140.38L4.60732 140.256H4.83292H5.05853H5.28414H5.50973H5.73534H5.96094H6.18655H6.41215H6.63775H6.86336H7.08897H7.31456H7.54017H7.76578H7.99137H8.21698H8.44259H8.66819H8.8938H9.11939H9.345L9.47198 140.359L9.45644 140.603L9.43709 140.842L9.41379 141.075L9.38666 141.303L9.35559 141.525L9.32042 141.742L9.28129 141.953L9.23806 142.158L9.19075 142.358L9.13934 142.553L9.08368 142.743L9.02379 142.927L8.95966 143.106L8.89129 143.28L8.81855 143.449L8.74144 143.612L8.65993 143.771L8.57405 143.925L8.48365 144.073L8.38873 144.217L8.28928 144.355L8.38011 144.766L8.84182 145.761L9.25881 146.778L9.6296 147.813L9.95305 148.864L10.2282 149.927L10.4545 151L10.4547 151Z" fill="white" stroke="white"/>
<path d="M1.70416 24.9273H12.2675V14.0802L11.2115 8.87527L8.06525 1.73108C7.97904 1.51528 7.83011 1.33025 7.6377 1.19993C7.4453 1.0696 7.21824 1 6.98585 1C6.75346 1 6.52641 1.0696 6.33401 1.19993C6.1416 1.33025 5.99268 1.51528 5.90646 1.73108L2.76025 8.87527L1.70416 14.0802V24.9273Z" stroke="white"/>
<path d="M12.2676 24.9273L12.9718 28.1014V131.535L8.19186 135.74C7.83803 135.987 7.41715 136.119 6.98591 136.119C6.55466 136.119 6.13378 135.987 5.77995 135.74L1 131.535V28.1014L1.70422 24.9273" stroke="white"/>
<path d="M12.9718 131.535H1" stroke="white"/>
<path d="M6.9859 136.119V140.256" stroke="white"/>
<path d="M1 131.535L4.60731 140.256" stroke="white"/>
<path d="M12.9719 131.535L9.36456 140.256" stroke="white"/>
</svg>
