<svg width="29" height="152" viewBox="0 0 29 152" fill="none" xmlns="http://www.w3.org/2000/svg">
<path d="M18.0983 146.823V146.622H18.1716C18.2242 146.622 18.2547 146.63 18.2796 146.645C18.3234 146.673 18.3586 146.673 18.4261 146.645C18.5003 146.613 18.6525 146.613 18.7266 146.645C18.7561 146.657 18.7932 146.668 18.8092 146.668C18.8253 146.668 18.854 146.657 18.8731 146.645C18.898 146.629 18.9285 146.622 18.9811 146.622H19.0544V146.823V147.023H18.5763H18.0983V146.823Z" fill="#101010"/>
<path d="M2.28443 148.378C2.2753 148.357 2.26649 148.33 2.26483 148.317L2.26202 148.295H2.94891H3.63582L3.64304 148.332C3.64736 148.354 3.64669 148.378 3.64144 148.392L3.63247 148.415H2.96688H2.30127L2.28473 148.378H2.28443Z" fill="#F7F7F7"/>
<path d="M3.81877 148.376C3.80927 148.355 3.80046 148.328 3.79917 148.316L3.79675 148.295L4.49956 148.291C5.11267 148.291 5.20235 148.291 5.20235 148.302C5.20235 148.309 5.19404 148.337 5.18386 148.364L5.16535 148.414H4.50062H3.8359L3.81864 148.375L3.81877 148.376Z" fill="#F7F7F7"/>
<path d="M5.32152 148.44C5.32395 148.434 5.33289 148.407 5.34117 148.38C5.34945 148.353 5.35967 148.321 5.36395 148.31L5.37169 148.29L5.72192 148.294L6.07213 148.298L6.07859 148.32C6.09224 148.367 6.1104 148.424 6.11682 148.439C6.12312 148.453 6.10093 148.454 5.72025 148.454C5.40111 148.454 5.31789 148.45 5.32152 148.443V148.44Z" fill="#F7F7F7"/>
<path d="M6.25654 148.371C6.24612 148.347 6.23761 148.319 6.23761 148.309V148.29L6.94039 148.294L7.6432 148.298L7.64037 148.32C7.63875 148.333 7.6299 148.36 7.62077 148.381L7.60418 148.419H6.9399H6.27565L6.25671 148.375L6.25654 148.371Z" fill="#F7F7F7"/>
<path d="M7.79794 148.393C7.79115 148.378 7.7905 148.359 7.79592 148.333L7.80395 148.295H8.49108H9.17824L9.1754 148.316C9.17379 148.328 9.16491 148.355 9.15566 148.376L9.13885 148.416H8.47348H7.80809L7.79804 148.393H7.79794Z" fill="#F7F7F7"/>
<path d="M10.8573 148.38C10.8183 148.278 10.7813 148.283 11.5251 148.283H12.2104L12.222 148.33C12.2463 148.427 12.2481 148.426 11.5334 148.426H10.8747L10.8573 148.38H10.8573Z" fill="#F7F7F7"/>
<path d="M12.4599 148.415C12.4048 148.41 12.3671 148.364 12.3671 148.303C12.3671 148.293 12.6468 148.287 13.0722 148.287C13.7405 148.287 13.7772 148.287 13.7772 148.319C13.7772 148.337 13.7671 148.365 13.7549 148.382C13.7348 148.409 13.6712 148.412 13.1257 148.417C12.7919 148.421 12.4924 148.417 12.46 148.417L12.4599 148.415Z" fill="#F7F7F7"/>
<path d="M13.9022 148.434C13.9023 148.427 13.9107 148.39 13.9209 148.354L13.9395 148.287H14.2935H14.6476L14.674 148.367L14.7005 148.447H14.3013C14.0818 148.447 13.9022 148.441 13.9022 148.434L13.9022 148.434Z" fill="#F7F7F7"/>
<path d="M14.9909 148.415C14.8514 148.41 14.8124 148.389 14.8124 148.319C14.8124 148.288 14.8492 148.287 15.5175 148.287C16.1858 148.287 16.2225 148.287 16.2225 148.319C16.2225 148.337 16.2111 148.367 16.1972 148.386C16.1731 148.419 16.1459 148.421 15.6483 148.421C15.3604 148.421 15.0646 148.417 14.9909 148.416V148.415Z" fill="#F7F7F7"/>
<path d="M16.4367 148.412C16.3811 148.404 16.3742 148.397 16.3742 148.349V148.296L17.0658 148.291C17.8076 148.286 17.7816 148.282 17.7344 148.376L17.7118 148.42H17.1055C16.772 148.42 16.471 148.416 16.4367 148.411V148.412Z" fill="#F7F7F7"/>
<path d="M19.4338 148.381C19.3961 148.282 19.3611 148.287 20.1025 148.287C20.7831 148.287 20.7877 148.287 20.7974 148.324C20.8123 148.381 20.793 148.412 20.7408 148.414C20.7148 148.414 20.4138 148.418 20.0719 148.42L19.4502 148.424L19.4338 148.381V148.381Z" fill="#F7F7F7"/>
<path d="M21.0391 148.415C20.9755 148.41 20.9535 148.383 20.9527 148.309C20.9525 148.292 21.1052 148.287 21.6575 148.287C22.0924 148.287 22.3625 148.293 22.3625 148.304C22.3625 148.313 22.3532 148.341 22.3418 148.366C22.3223 148.409 22.3131 148.412 22.1856 148.412C22.1111 148.413 21.8373 148.416 21.5772 148.417C21.317 148.421 21.0749 148.417 21.0391 148.417V148.415Z" fill="#F7F7F7"/>
<path d="M22.4778 148.416C22.4844 148.399 22.4943 148.363 22.4998 148.336L22.5097 148.287H22.8711H23.2325L23.2424 148.336C23.2479 148.363 23.2578 148.399 23.2644 148.416C23.2757 148.445 23.2499 148.447 22.8711 148.447C22.4922 148.447 22.4664 148.443 22.4777 148.416H22.4778Z" fill="#F7F7F7"/>
<path d="M23.5643 148.415C23.419 148.41 23.4185 148.41 23.3992 148.355C23.3886 148.324 23.3799 148.296 23.3799 148.293C23.3799 148.289 23.7012 148.286 24.0938 148.286C24.4865 148.286 24.8078 148.291 24.8078 148.293C24.8078 148.297 24.799 148.324 24.7882 148.355C24.7715 148.404 24.7593 148.412 24.7034 148.415C24.5938 148.421 23.7194 148.421 23.5643 148.415V148.415Z" fill="#F7F7F7"/>
<path d="M25.0131 148.414C24.9498 148.407 24.9352 148.389 24.9464 148.33L24.9548 148.287H25.6475H26.3403L26.3242 148.343C26.3154 148.373 26.3032 148.403 26.2972 148.41C26.2859 148.421 25.1089 148.425 25.0131 148.414L25.0131 148.414Z" fill="#F7F7F7"/>
<path d="M9.48212 146.775V146.588H9.57293C9.62288 146.588 9.68097 146.596 9.70202 146.606C9.73183 146.62 9.75774 146.619 9.81872 146.606C9.89462 146.588 10.0402 146.59 10.2115 146.613C10.2615 146.62 10.287 146.618 10.287 146.606C10.287 146.597 10.3273 146.59 10.3876 146.59H10.4882V146.777V146.964H9.98513H9.48212V146.777V146.775Z" fill="#101010"/>
<path d="M3.64494 149.537C3.56572 149.345 3.46114 149.121 3.35684 148.921L3.31628 148.843L3.33306 148.812C3.36237 148.759 3.42969 148.643 3.47032 148.576L3.48478 148.552H3.56634C3.61118 148.552 3.7012 148.552 3.76634 148.553H3.88478L3.90044 148.578C3.93531 148.635 4.02492 148.789 4.04633 148.829L4.05367 148.843L4.03248 148.883C3.91876 149.097 3.80491 149.34 3.71338 149.564L3.69801 149.601H3.68465H3.6713L3.645 149.537L3.64494 149.537Z" fill="black"/>
<path d="M7.68675 149.476C7.60753 149.284 7.50296 149.06 7.39866 148.86L7.35809 148.782L7.37487 148.751C7.40418 148.698 7.47149 148.582 7.51213 148.515L7.52659 148.492H7.60816C7.653 148.492 7.74301 148.492 7.80815 148.492H7.92659L7.94225 148.517C7.97712 148.574 8.06673 148.728 8.08814 148.768L8.09547 148.782L8.07429 148.822C7.96057 149.036 7.84673 149.279 7.7552 149.503L7.73981 149.54H7.72647H7.71311L7.68681 149.476L7.68675 149.476Z" fill="black"/>
<path d="M5.26394 149.257C5.29675 149.194 5.3581 149.082 5.40022 149.008L5.47679 148.874L5.38659 148.717L5.29638 148.561H5.14138C5.00915 148.561 4.9864 148.556 4.9864 148.544C4.9864 148.531 4.97361 148.528 4.91942 148.531C4.85604 148.535 4.85127 148.536 4.83038 148.572L4.80829 148.609L4.92435 148.828C4.98819 148.948 5.0741 149.119 5.1153 149.209C5.15652 149.298 5.19335 149.371 5.19722 149.371C5.20093 149.372 5.2311 149.32 5.26393 149.257L5.26394 149.257Z" fill="black"/>
<path d="M6.19882 149.25C6.16601 149.186 6.10466 149.074 6.06255 149L5.98596 148.866L6.07617 148.709L6.16637 148.553H6.32137C6.4536 148.553 6.47637 148.548 6.47637 148.536C6.47637 148.523 6.48914 148.52 6.54334 148.523C6.60671 148.527 6.61148 148.528 6.63238 148.564L6.65448 148.601L6.53841 148.82C6.47457 148.94 6.38865 149.111 6.34746 149.201C6.30623 149.29 6.2694 149.363 6.26554 149.363C6.26183 149.364 6.23166 149.312 6.19882 149.249V149.25Z" fill="black"/>
<path d="M4.75192 150.971C4.75192 150.966 4.786 150.817 4.79082 150.801C4.86226 149.893 4.93638 150.081 5.22922 149.53C5.22922 149.502 5.4287 149.107 5.5394 148.915L5.59587 148.818V148.691V148.565H5.73423H5.87259V148.693V148.821L5.93189 148.924C5.99393 149.031 6.16522 149.361 6.20495 149.45L6.22807 149.501C6.5916 150.471 6.31816 149.62 6.69227 150.872C6.70179 150.914 6.70959 150.955 6.70959 150.962C6.70959 150.976 6.70795 150.976 5.73071 150.976C5.19233 150.976 4.75183 150.976 4.75183 150.971L4.75192 150.971Z" fill="black"/>
<path d="M10.5308 29.0327H18.0615" stroke="white"/>
<path d="M1.95435 62.1823H9.48508" stroke="white"/>
<path d="M10.5308 146.444H18.0615" stroke="white"/>
<path d="M10.5308 47.7689H18.0615" stroke="white"/>
<path d="M1.95435 146.444H9.48508" stroke="white"/>
<path d="M26.6378 62.1823H19.1071" stroke="white"/>
<path d="M19.1071 62.1823H26.6378" stroke="white"/>
<path d="M19.1071 146.444H26.6378" stroke="white"/>
<path d="M9.06079 26.3367H19.5313" stroke="white"/>
<path d="M10.5307 29.0327L10.3735 28.7444L10.2163 28.4561L10.0591 28.1678L9.90196 27.8795L9.74479 27.5912L9.5876 27.3029L9.43042 27.0146L9.27323 26.7263L9.11606 26.438L9.06079 25.2811V23.6534V22.0256V20.3978V18.77V17.1422V15.5144V13.8867V12.2589L9.06673 11.0508L9.0868 10.8369L9.10718 10.623L9.12811 10.409L9.14985 10.195L9.17258 9.98102L9.19657 9.76698L9.22205 9.55292L9.24927 9.33881L9.27848 9.12464L9.30986 8.91043L9.34358 8.69627L9.37969 8.48225L9.41835 8.26853L9.45959 8.05526L9.50349 7.8425L9.5502 7.63043L9.59977 7.41915L9.6523 7.20881L9.70789 6.9995L9.76661 6.79138L9.82855 6.58456L9.89385 6.37917L9.96253 6.17534L10.0347 5.9732L10.1105 5.77287L10.19 5.57448L10.2732 5.37814L10.3603 5.18397L10.4512 4.99194L10.5459 4.80199L10.6444 4.614L10.7467 4.42789L10.8526 4.24361L10.9623 4.06104L11.0755 3.88011L11.1924 3.70075L11.3128 3.5229L11.4368 3.34643L11.5643 3.17129L11.6952 2.99738L11.8296 2.82463L11.9674 2.65294L12.1085 2.48223L12.253 2.31246L12.4008 2.14351L12.5519 1.97542L12.7067 1.81014L12.8662 1.65117L13.0314 1.50201L13.203 1.36618L13.382 1.24727L13.5694 1.14877L13.7659 1.0742L13.9727 1.02665L14.191 1.0002L14.4192 1L14.6376 1.02633L14.8444 1.07363L15.0411 1.14793L15.2286 1.24621L15.4077 1.36495L15.5794 1.5006L15.7446 1.64966L15.9042 1.80856L16.059 1.97382L16.2101 2.14188L16.3578 2.31084L16.5022 2.4806L16.6433 2.65131L16.781 2.823L16.9153 2.99575L17.0461 3.16966L17.1735 3.3448L17.2975 3.52127L17.4179 3.69913L17.5347 3.87848L17.648 4.05939L17.7577 4.24193L17.8637 4.42619L17.9661 4.61228L18.0648 4.80024L18.1597 4.99017L18.2509 5.18215L18.3384 5.37624L18.422 5.57251L18.5019 5.77085L18.5782 5.97111L18.6509 6.17319L18.7201 6.37695L18.7858 6.58227L18.8482 6.78904L18.9073 6.99711L18.9632 7.20637L19.016 7.41669L19.0656 7.62797L19.1123 7.84003L19.156 8.05279L19.1969 8.26614L19.2349 8.47988L19.2703 8.69397L19.3031 8.90826L19.3333 9.1226L19.361 9.33691L19.3866 9.55122L19.4102 9.76548L19.4322 9.97972L19.4527 10.194L19.4722 10.4082L19.4907 10.6224L19.5087 10.8366L19.5263 11.0508L19.5315 12.2589V13.8867V15.5145V17.1423V18.77V20.3978V22.0256V23.6534V25.2812L19.4762 26.438L19.319 26.7263L19.1619 27.0146L19.0047 27.3029L18.8475 27.5912L18.6903 27.8795L18.5331 28.1678L18.376 28.4561L18.2188 28.7444L18.0616 29.0327" stroke="white"/>
<path d="M15.7222 148.495H15.3111" stroke="white"/>
<path d="M11.317 150.642H13.3006" stroke="white"/>
<path d="M12.1033 148.495H12.5143" stroke="white"/>
<path d="M12.6922 148.829C12.636 148.716 12.5767 148.604 12.5143 148.495" stroke="white"/>
<path d="M12.1032 148.495C12.0409 148.604 11.9816 148.716 11.9254 148.829" stroke="white"/>
<path d="M13.4691 148.495H13.7777" stroke="white"/>
<path d="M14.0783 148.87C14.0214 148.753 13.9612 148.639 13.8979 148.526" stroke="white"/>
<path d="M13.4691 148.495C13.437 148.551 13.4056 148.608 13.3751 148.666" stroke="white"/>
<path d="M17.2752 150.642H15.2916" stroke="white"/>
<path d="M16.4889 148.495H16.0778" stroke="white"/>
<path d="M16.0779 148.495C16.0156 148.604 15.9563 148.716 15.9 148.829" stroke="white"/>
<path d="M16.6668 148.829C16.6106 148.716 16.5513 148.604 16.489 148.495" stroke="white"/>
<path d="M15.1231 148.495H14.8145" stroke="white"/>
<path d="M12.2862 148.218C12.2816 148.318 12.3125 148.416 12.3735 148.495" stroke="white"/>
<path d="M13.7777 148.495C13.8387 148.416 13.8696 148.318 13.865 148.218" stroke="white"/>
<path d="M12.3734 148.495H13.7777" stroke="white"/>
<path d="M14.7272 148.218C14.7226 148.318 14.7535 148.416 14.8145 148.495" stroke="white"/>
<path d="M16.2187 148.495C16.2797 148.416 16.3106 148.318 16.306 148.218" stroke="white"/>
<path d="M14.8145 148.495H16.2187" stroke="white"/>
<path d="M13.8979 148.526H14.6942" stroke="white"/>
<path d="M13.5719 148.495C13.5788 148.505 13.5861 148.516 13.594 148.526" stroke="white"/>
<path d="M14.9982 148.526C15.0061 148.516 15.0134 148.505 15.0203 148.495" stroke="white"/>
<path d="M13.5939 148.526H14.9982" stroke="white"/>
<path d="M14.7144 148.526C14.6511 148.639 14.5909 148.753 14.534 148.87" stroke="white"/>
<path d="M14.7144 148.526C14.6511 148.639 14.5909 148.753 14.534 148.87" stroke="white"/>
<path d="M15.2271 148.647C15.1997 148.596 15.1717 148.545 15.1431 148.495" stroke="white"/>
<path d="M18.0615 28.9899V126.272" stroke="white"/>
<path d="M13.3859 150.642C13.3593 150.753 13.3354 150.865 13.3143 150.977H15.298C15.2769 150.865 15.253 150.753 15.2264 150.642" stroke="white"/>
<path d="M13.7578 149.52C13.8592 149.284 13.9736 149.054 14.1006 148.83V148.526" stroke="white"/>
<path d="M14.5117 148.526V148.83C14.6342 149.046 14.7451 149.268 14.8438 149.495" stroke="white"/>
<path d="M12.3088 149.764C12.1646 149.323 11.9766 148.898 11.7475 148.495H11.3364C10.9573 149.162 10.6916 149.887 10.5502 150.642H12.5338" fill="white"/>
<path d="M12.3088 149.764C12.1646 149.323 11.9766 148.898 11.7475 148.495H11.3364C10.9573 149.162 10.6916 149.887 10.5502 150.642H12.5338" stroke="white"/>
<path d="M10.7526 148.218C10.748 148.318 10.7789 148.416 10.8399 148.495H12.2442C12.2721 148.459 12.2939 148.418 12.3088 148.375" stroke="white"/>
<path d="M16.2834 148.375C16.2983 148.418 16.3202 148.459 16.3481 148.495H17.7523C17.8133 148.416 17.8443 148.318 17.8396 148.218" stroke="white"/>
<path d="M16.0583 150.642H18.042C17.9005 149.887 17.6348 149.162 17.2557 148.495H16.8446C16.6156 148.898 16.4276 149.323 16.2834 149.764" fill="white"/>
<path d="M16.0583 150.642H18.042C17.9005 149.887 17.6348 149.162 17.2557 148.495H16.8446C16.6156 148.898 16.4276 149.323 16.2834 149.764" stroke="white"/>
<path d="M15.7222 148.495C16.1012 149.162 16.3669 149.887 16.5084 150.642H14.5248C14.6663 149.887 14.932 149.162 15.3111 148.495" fill="white"/>
<path d="M15.7222 148.495C16.1012 149.162 16.3669 149.887 16.5084 150.642H14.5248C14.6663 149.887 14.932 149.162 15.3111 148.495" stroke="white"/>
<path d="M12.8701 148.495C12.491 149.162 12.2253 149.887 12.0838 150.642H14.0674C13.9259 149.887 13.6602 149.162 13.2811 148.495H12.8701Z" fill="white" stroke="white"/>
<path d="M7.14578 148.495H6.73468" stroke="white"/>
<path d="M2.7406 150.642H4.72422" stroke="white"/>
<path d="M3.52686 148.495H3.93793" stroke="white"/>
<path d="M4.1158 148.829C4.05957 148.716 4.00024 148.604 3.93793 148.495" stroke="white"/>
<path d="M3.52685 148.495C3.46454 148.604 3.40524 148.716 3.349 148.829" stroke="white"/>
<path d="M4.8927 148.495H5.20132" stroke="white"/>
<path d="M5.50195 148.87C5.44503 148.753 5.38486 148.639 5.32153 148.526" stroke="white"/>
<path d="M4.8927 148.495C4.86057 148.551 4.82923 148.608 4.79871 148.666" stroke="white"/>
<path d="M8.6988 150.642H6.71515" stroke="white"/>
<path d="M7.91256 148.495H7.50146" stroke="white"/>
<path d="M7.50146 148.495C7.43915 148.604 7.37984 148.716 7.32361 148.829" stroke="white"/>
<path d="M8.09045 148.829C8.03421 148.716 7.97491 148.604 7.9126 148.495" stroke="white"/>
<path d="M6.54672 148.495H6.2381" stroke="white"/>
<path d="M3.70981 148.218C3.70517 148.318 3.73609 148.416 3.79707 148.495" stroke="white"/>
<path d="M5.20135 148.495C5.26233 148.416 5.29328 148.318 5.28864 148.218" stroke="white"/>
<path d="M3.79706 148.495H5.20135" stroke="white"/>
<path d="M6.15085 148.218C6.14621 148.318 6.17716 148.416 6.23813 148.495" stroke="white"/>
<path d="M7.64233 148.495C7.70331 148.416 7.73426 148.318 7.72962 148.218" stroke="white"/>
<path d="M6.2381 148.495H7.64236" stroke="white"/>
<path d="M5.32153 148.526H6.11789" stroke="white"/>
<path d="M4.99554 148.495C5.00241 148.505 5.00978 148.516 5.01761 148.526" stroke="white"/>
<path d="M6.42181 148.526C6.42964 148.516 6.43701 148.505 6.44388 148.495" stroke="white"/>
<path d="M5.01758 148.526H6.42184" stroke="white"/>
<path d="M13.924 148.526H15.3282" stroke="white"/>
<path d="M22.0014 148.526H23.4057" stroke="white"/>
<path d="M6.13797 148.526C6.07464 148.639 6.0145 148.753 5.95758 148.87" stroke="white"/>
<path d="M6.13797 148.526C6.07464 148.639 6.0145 148.753 5.95758 148.87" stroke="white"/>
<path d="M3.73243 149.764C3.58823 149.323 3.4002 148.898 3.17116 148.495H2.76009C2.381 149.162 2.11529 149.887 1.97382 150.642H3.95744" fill="white"/>
<path d="M3.73243 149.764C3.58823 149.323 3.4002 148.898 3.17116 148.495H2.76009C2.381 149.162 2.11529 149.887 1.97382 150.642H3.95744" stroke="white"/>
<path d="M7.70697 148.375C7.72188 148.418 7.74372 148.459 7.77163 148.495H9.17592C9.23689 148.416 9.26782 148.318 9.26318 148.218" stroke="white"/>
<path d="M7.48199 150.642H9.46562C9.32414 149.887 9.05843 149.162 8.67934 148.495H8.26825C8.03921 148.898 7.8512 149.323 7.707 149.764" fill="white"/>
<path d="M7.48199 150.642H9.46562C9.32414 149.887 9.05843 149.162 8.67934 148.495H8.26825C8.03921 148.898 7.8512 149.323 7.707 149.764" stroke="white"/>
<path d="M7.14574 148.495C7.52483 149.162 7.79053 149.887 7.93201 150.642H5.94836C6.08984 149.887 6.35555 149.162 6.73464 148.495" fill="white"/>
<path d="M7.14574 148.495C7.52483 149.162 7.79053 149.887 7.93201 150.642H5.94836C6.08984 149.887 6.35555 149.162 6.73464 148.495" stroke="white"/>
<path d="M4.29366 148.495C3.91457 149.162 3.64886 149.887 3.50739 150.642H5.49101C5.34953 149.887 5.08385 149.162 4.70476 148.495H4.29366Z" fill="white" stroke="white"/>
<path d="M24.2985 148.495H23.8875" stroke="white"/>
<path d="M19.8934 150.642H21.877" stroke="white"/>
<path d="M20.6796 148.495H21.0907" stroke="white"/>
<path d="M21.2686 148.829C21.2123 148.716 21.153 148.604 21.0907 148.495" stroke="white"/>
<path d="M20.6796 148.495C20.6173 148.604 20.558 148.716 20.5018 148.829" stroke="white"/>
<path d="M22.0455 148.495H22.3541" stroke="white"/>
<path d="M22.6547 148.87C22.5978 148.753 22.5376 148.639 22.4743 148.526" stroke="white"/>
<path d="M22.0455 148.495C22.0133 148.551 21.982 148.608 21.9515 148.666" stroke="white"/>
<path d="M25.8515 150.642H23.8679" stroke="white"/>
<path d="M25.0653 148.495H24.6542" stroke="white"/>
<path d="M24.6542 148.495C24.5919 148.604 24.5326 148.716 24.4764 148.829" stroke="white"/>
<path d="M25.2432 148.829C25.187 148.716 25.1277 148.604 25.0654 148.495" stroke="white"/>
<path d="M23.6994 148.495H23.3908" stroke="white"/>
<path d="M20.8626 148.218C20.8579 148.318 20.8889 148.416 20.9499 148.495" stroke="white"/>
<path d="M22.3541 148.495C22.4151 148.416 22.446 148.318 22.4414 148.218" stroke="white"/>
<path d="M20.9498 148.495H22.3541" stroke="white"/>
<path d="M23.3036 148.218C23.299 148.318 23.3299 148.416 23.3909 148.495" stroke="white"/>
<path d="M24.7951 148.495C24.8561 148.416 24.887 148.318 24.8824 148.218" stroke="white"/>
<path d="M23.3908 148.495H24.7951" stroke="white"/>
<path d="M22.4743 148.526H23.2707" stroke="white"/>
<path d="M22.1483 148.495C22.1552 148.505 22.1625 148.516 22.1704 148.526" stroke="white"/>
<path d="M23.5746 148.526C23.5824 148.516 23.5898 148.505 23.5966 148.495" stroke="white"/>
<path d="M23.2908 148.526C23.2274 148.639 23.1673 148.753 23.1104 148.87" stroke="white"/>
<path d="M23.2908 148.526C23.2274 148.639 23.1673 148.753 23.1104 148.87" stroke="white"/>
<path d="M23.8035 148.647C23.7761 148.596 23.7482 148.545 23.7195 148.495" stroke="white"/>
<path d="M21.9623 150.642C21.9357 150.753 21.9118 150.865 21.8907 150.977H23.8744C23.8533 150.865 23.8294 150.753 23.8028 150.642" stroke="white"/>
<path d="M4.70642 150.642C4.67981 150.753 4.65597 150.865 4.63489 150.977H6.61851C6.59743 150.865 6.57358 150.753 6.54697 150.642" stroke="white"/>
<path d="M22.1703 148.526H23.5746" stroke="white"/>
<path d="M22.3341 149.52C22.4355 149.284 22.55 149.054 22.6769 148.83V148.526" stroke="white"/>
<path d="M23.0881 148.526V148.83C23.2106 149.046 23.3214 149.268 23.4201 149.495" stroke="white"/>
<path d="M5.03876 148.526H6.44304" stroke="white"/>
<path d="M5.20264 149.52C5.30404 149.284 5.41849 149.054 5.54548 148.83V148.526" stroke="white"/>
<path d="M5.9566 148.526V148.83C6.0791 149.046 6.18994 149.268 6.28865 149.495" stroke="white"/>
<path d="M20.8852 149.764C20.741 149.323 20.553 148.898 20.3239 148.495H19.9128C19.5337 149.162 19.2681 149.887 19.1266 150.642H21.1102" fill="white"/>
<path d="M20.8852 149.764C20.741 149.323 20.553 148.898 20.3239 148.495H19.9128C19.5337 149.162 19.2681 149.887 19.1266 150.642H21.1102" stroke="white"/>
<path d="M19.3289 148.218C19.3243 148.318 19.3553 148.416 19.4162 148.495H20.8205C20.8484 148.459 20.8703 148.418 20.8852 148.375" stroke="white"/>
<path d="M24.8597 148.375C24.8747 148.418 24.8965 148.459 24.9244 148.495H26.3287C26.3897 148.416 26.4206 148.318 26.416 148.218" stroke="white"/>
<path d="M24.6348 150.642H26.6184C26.4769 149.887 26.2112 149.162 25.8321 148.495H25.421C25.192 148.898 25.004 149.323 24.8598 149.764" fill="white"/>
<path d="M24.6348 150.642H26.6184C26.4769 149.887 26.2112 149.162 25.8321 148.495H25.421C25.192 148.898 25.004 149.323 24.8598 149.764" stroke="white"/>
<path d="M24.2985 148.495C24.6776 149.162 24.9433 149.887 25.0848 150.642H23.1011C23.2426 149.887 23.5083 149.162 23.8874 148.495" fill="white"/>
<path d="M24.2985 148.495C24.6776 149.162 24.9433 149.887 25.0848 150.642H23.1011C23.2426 149.887 23.5083 149.162 23.8874 148.495" stroke="white"/>
<path d="M21.4464 148.495C21.0673 149.162 20.8016 149.887 20.6602 150.642H22.6438C22.5023 149.887 22.2366 149.162 21.8575 148.495H21.4464Z" fill="white" stroke="white"/>
<path d="M14.2961 29.0327V1.00012" stroke="white"/>
<path d="M18.0615 147.027H19.1071" stroke="white"/>
<path d="M1.95435 144.253V146.591V147.348V147.537V147.584V147.608H1.95437H1.95442L1.95469 147.614L1.9559 147.635L1.96477 147.72L1.97971 147.804L2.00071 147.888L2.02766 147.97L2.06029 148.05L2.09838 148.127L2.14152 148.2L2.14726 148.209L2.15007 148.214L2.1517 148.218L2.15877 148.218H2.22198H2.34838H2.60122H3.1069H7.15226H9.17496H9.23816H9.26979H9.28559L9.2901 148.214L9.31268 148.178L9.35419 148.103L9.3905 148.025L9.42126 147.945L9.44626 147.862L9.46529 147.778L9.47821 147.693L9.48508 147.608V144.252" stroke="white"/>
<path d="M2.31383 141.5L2.33237 141.443L2.36421 141.381L2.40819 141.315L2.46304 141.25L2.52757 141.189L2.60054 141.134L2.68075 141.088L2.76698 141.054L2.85801 141.036L2.95265 141.036L3.04962 141.057L3.14775 141.102L3.31064 141.529L3.48147 142L3.65227 142.471L3.8231 142.942L3.9939 143.413L4.16473 143.884L4.33554 144.355L4.50636 144.826L4.67717 145.297L4.84797 145.768L5.0188 146.239L5.1896 146.71L5.23274 146.824L5.24087 146.838L5.24972 146.852L5.25921 146.864L5.26932 146.875L5.27997 146.885L5.29114 146.895L5.30272 146.904L5.3147 146.911L5.32703 146.918L5.33962 146.924L5.35247 146.93L5.36553 146.934L5.37869 146.938L5.39186 146.942H5.40497H5.41799H5.43076L5.44318 146.942L5.45526 146.942H5.46684H5.47789H5.48826H5.4979H5.51395L5.53522 146.932L5.55618 146.912L5.57664 146.882L5.59638 146.844L5.61524 146.799L5.63304 146.747L5.6496 146.69L5.66471 146.629L5.6782 146.566L5.68988 146.5L5.69957 146.434L5.62155 145.698L5.4403 144.157L5.25906 142.616L5.07783 141.075L4.89658 139.534L4.71535 137.993L4.53412 136.452L4.35289 134.911L4.17163 133.37L3.9904 131.829L3.80917 130.288L3.62794 128.747L3.50908 127.704L3.50829 127.602L3.50748 127.501L3.50666 127.4L3.50585 127.299L3.50506 127.197L3.50425 127.096L3.50343 126.995L3.50262 126.893L3.50181 126.792L3.50102 126.691L3.50021 126.59L3.49616 126.463L3.48182 126.266L3.46708 126.087L3.45199 125.926L3.43648 125.78L3.42063 125.65L3.40444 125.533L3.38792 125.427L3.37109 125.333L3.35393 125.249L3.33643 125.173L3.31866 125.104L3.30061 125.041L3.28227 124.982L3.26368 124.929L3.24483 124.88L3.2257 124.835L3.20627 124.793L3.18655 124.756L3.16656 124.723L3.14625 124.693L3.12564 124.666L3.10476 124.642L3.08356 124.621L3.06209 124.603L3.0403 124.587L3.01822 124.574L2.99586 124.563L2.97318 124.555L2.95025 124.55L2.92703 124.546L2.90352 124.546L2.87973 124.547L2.85569 124.551L2.83144 124.558L2.80689 124.567L2.78209 124.578L2.75704 124.592L2.73175 124.608L2.70614 124.627L2.68026 124.648L2.654 124.673L2.62738 124.7L2.60041 124.731L2.573 124.764L2.54512 124.801L2.51683 124.842L2.48801 124.886L2.4587 124.934L2.42885 124.986L2.39855 125.041L2.36799 125.099L2.33725 125.16L2.30651 125.224L2.27594 125.29L2.24565 125.357L2.21577 125.425L2.18644 125.494L2.15784 125.564L2.13011 125.634L2.10336 125.703L2.07775 125.772L2.05337 125.84L2.03027 125.907L2.00853 125.974L1.98822 126.041L1.96941 126.108L1.95216 126.176L1.93658 126.243L1.92268 126.312L1.91052 126.381" stroke="white"/>
<path d="M9.48511 147.032H10.5308" stroke="white"/>
<path d="M10.8902 141.5L10.9088 141.443L10.9406 141.381L10.9846 141.315L11.0394 141.25L11.104 141.189L11.1769 141.134L11.2572 141.088L11.3434 141.054L11.4344 141.036L11.529 141.036L11.626 141.057L11.7242 141.102L11.887 141.529L12.0579 142L12.2287 142.471L12.3995 142.942L12.5703 143.413L12.7411 143.884L12.9119 144.355L13.0827 144.826L13.2536 145.297L13.4244 145.768L13.5952 146.239L13.766 146.71L13.8091 146.824L13.8173 146.838L13.8261 146.852L13.8356 146.864L13.8457 146.875L13.8564 146.885L13.8675 146.895L13.8791 146.904L13.8911 146.911L13.9034 146.918L13.916 146.924L13.9289 146.93L13.9419 146.934L13.9551 146.938L13.9683 146.942H13.9814H13.9944H14.0071L14.0196 146.942L14.0317 146.942H14.0432H14.0543H14.0646H14.0743H14.0904L14.1116 146.932L14.1326 146.912L14.153 146.882L14.1728 146.844L14.1916 146.799L14.2094 146.747L14.226 146.69L14.2411 146.629L14.2546 146.566L14.2663 146.5L14.276 146.434L14.198 145.698L14.0167 144.157L13.8355 142.616L13.6542 141.075L13.473 139.534L13.2918 137.993L13.1105 136.452L12.9293 134.911L12.748 133.37L12.5668 131.829L12.3856 130.288L12.2043 128.747L12.0855 127.704L12.0847 127.602L12.0839 127.501L12.0831 127.4L12.0823 127.299L12.0814 127.197L12.0807 127.096L12.0798 126.995L12.079 126.893L12.0782 126.792L12.0774 126.691L12.0766 126.59L12.0726 126.463L12.0582 126.266L12.0435 126.087L12.0284 125.926L12.0129 125.78L11.997 125.65L11.9808 125.533L11.9643 125.427L11.9475 125.333L11.9303 125.249L11.9128 125.173L11.8951 125.104L11.877 125.041L11.8587 124.982L11.8401 124.929L11.8212 124.88L11.8021 124.835L11.7827 124.793L11.763 124.756L11.743 124.723L11.7227 124.693L11.702 124.666L11.6812 124.642L11.66 124.621L11.6385 124.603L11.6167 124.587L11.5946 124.574L11.5722 124.563L11.5496 124.555L11.5267 124.55L11.5034 124.546L11.4799 124.546L11.4561 124.547L11.4321 124.551L11.4078 124.558L11.3833 124.567L11.3585 124.578L11.3334 124.592L11.3082 124.608L11.2825 124.627L11.2567 124.648L11.2304 124.673L11.2038 124.7L11.1768 124.731L11.1494 124.764L11.1215 124.801L11.0932 124.842L11.0644 124.886L11.0351 124.934L11.0052 124.986L10.9749 125.041L10.9443 125.099L10.9136 125.16L10.8829 125.224L10.8523 125.29L10.822 125.357L10.7921 125.425L10.7628 125.494L10.7342 125.564L10.7065 125.634L10.6797 125.703L10.6541 125.772L10.6297 125.84L10.6066 125.907L10.5849 125.974L10.5646 126.041L10.5458 126.108L10.5285 126.176L10.5129 126.243L10.499 126.312L10.4869 126.381" stroke="white"/>
<path d="M18.0615 144.253V147.609C18.0516 147.826 17.9833 148.037 17.864 148.218H14.2961H10.7283C10.6089 148.037 10.5407 147.826 10.5308 147.609V144.253" stroke="white"/>
<path d="M19.1071 144.253V146.591V147.348V147.537V147.584V147.608V147.608H19.1072L19.1074 147.614L19.1086 147.635L19.1175 147.72L19.1325 147.804L19.1535 147.888L19.1804 147.97L19.2131 148.05L19.2511 148.127L19.2943 148.2L19.3 148.209L19.3028 148.214L19.3045 148.218L19.3115 148.218H19.3747H19.5012H19.754H20.2596H24.305H26.3277H26.3909H26.4226H26.4383L26.4429 148.214L26.4655 148.178L26.5069 148.103L26.5432 148.025L26.574 147.945L26.599 147.862L26.6181 147.778L26.631 147.693L26.6378 147.608V144.252" stroke="white"/>
<path d="M3.50128 126.507L3.00287 125.979" stroke="white"/>
<path d="M3.00293 125.979H2.09399" stroke="white"/>
<path d="M2.31384 141.5L2.29873 141.587L2.2838 141.676L2.26901 141.766L2.25439 141.858L2.23989 141.951L2.22555 142.046L2.21135 142.143L2.19727 142.241L2.18335 142.34L2.16954 142.44L2.15584 142.542L2.1423 142.645L2.12887 142.749L2.11553 142.854L2.10232 142.96L2.08921 143.066L2.07619 143.174L2.06327 143.283L2.05048 143.392L2.03776 143.502L2.02511 143.613L2.01254 143.724L1.98762 143.948L1.96299 144.173L1.93859 144.4L1.8904 144.854L1.86654 145.082L1.84273 145.308L1.81904 145.533L1.79537 145.757L1.78354 145.868L1.77171 145.979L1.75985 146.089L1.74802 146.198L1.73619 146.306L1.72433 146.414L1.71245 146.52L1.70054 146.626L1.68859 146.731L1.67658 146.835L1.67057 146.886L1.66894 146.899L1.66815 146.906L1.66776 146.91H1.66753H1.66719L1.66435 146.916L1.66113 146.922L1.6579 146.927L1.65467 146.931L1.65144 146.935L1.64818 146.939H1.64495H1.64173H1.63514H1.62854H1.62183L1.60845 146.933L1.58219 146.918L1.55676 146.902L1.53213 146.887L1.50824 146.872L1.48515 146.856L1.46279 146.84L1.44117 146.824L1.42029 146.808L1.4001 146.792L1.38058 146.775L1.36177 146.759L1.3436 146.742L1.32608 146.725L1.30919 146.708L1.2929 146.691L1.27724 146.673L1.26218 146.656L1.23374 146.621L1.20753 146.585L1.18337 146.549L1.16121 146.513L1.14085 146.476L1.12224 146.439L1.10523 146.402L1.08975 146.365L1.07568 146.328L1.06286 146.29L1.0512 146.252L1.04057 146.215L1.03089 146.177L1.02199 146.139L1.01383 146.101L1.00624 146.063L1.00261 146.044L1.00099 146.035L1.00017 146.03H1.00007L1.00002 146.03L1 146.03L1.00007 146.026L1.00089 146.003L1.00249 145.958L1.09976 143.045L1.2943 137.218L1.48884 131.392L1.58611 128.479L1.61042 127.751L1.61648 127.569L1.61685 127.557L1.6169 127.556L1.61693 127.555V127.555L1.61695 127.555L1.617 127.554L1.6172 127.553L1.61754 127.551L1.61836 127.546L1.62119 127.527L1.62703 127.489L1.6329 127.453L1.63874 127.417L1.64461 127.382L1.6505 127.348L1.65639 127.315L1.66233 127.282L1.66832 127.25L1.67434 127.219L1.68043 127.188L1.6928 127.128L1.70542 127.07L1.71844 127.013L1.73185 126.957L1.7457 126.902L1.76007 126.847L1.77501 126.792L1.79056 126.737L1.80688 126.681L1.82416 126.624L1.84263 126.566L1.86247 126.507L1.88382 126.447L1.89518 126.416L1.90696 126.385L1.91924 126.354L1.93203 126.322L1.94537 126.289L1.95927 126.257L1.97377 126.223L1.98888 126.19L2.00458 126.155L2.02097 126.12L2.03803 126.085L2.0558 126.049L2.07429 126.013L2.09354 125.975" stroke="white" stroke-linecap="round"/>
<path d="M1.98535 138.242L2.05583 128.501" stroke="white"/>
<path d="M2.05585 128.501L2.9284 127.319" stroke="white"/>
<path d="M2.0558 128.501L1.63892 127.421" stroke="white"/>
<path d="M2.92841 127.319L3.00292 125.979" stroke="white" stroke-linecap="round"/>
<path d="M1.70648 146.574H1.95437" stroke="white"/>
<path d="M1.67609 146.839H1.95432" stroke="white"/>
<path d="M9.12561 141.5L9.10707 141.443L9.0752 141.381L9.03125 141.315L8.97637 141.25L8.91186 141.189L8.83887 141.134L8.75866 141.088L8.67243 141.054L8.5814 141.036L8.48679 141.036L8.38982 141.057L8.29168 141.102L8.12877 141.529L7.95797 142L7.78714 142.471L7.61633 142.942L7.44553 143.413L7.2747 143.884L7.1039 144.355L6.93307 144.826L6.76227 145.297L6.59144 145.768L6.42064 146.239L6.24981 146.71L6.2067 146.824L6.19854 146.838L6.18969 146.852L6.1802 146.864L6.17012 146.875L6.15944 146.885L6.1483 146.895L6.13672 146.904L6.12471 146.911L6.11241 146.918L6.09979 146.924L6.08695 146.93L6.07391 146.934L6.06074 146.938L6.04758 146.942H6.03444H6.02145H6.00868L5.99626 146.942L5.98418 146.942H5.97257H5.96155H5.95117H5.94151H5.92549L5.90421 146.932L5.88324 146.912L5.8628 146.882L5.84305 146.844L5.8242 146.799L5.80638 146.747L5.78983 146.69L5.77472 146.629L5.76124 146.566L5.74956 146.5L5.73987 146.434L5.81789 145.698L5.99912 144.157L6.18037 142.616L6.3616 141.075L6.54283 139.534L6.72406 137.993L6.90532 136.452L7.08655 134.911L7.26778 133.37L7.44903 131.829L7.63026 130.288L7.81149 128.747L7.93033 127.704L7.93115 127.602L7.93196 127.501L7.93277 127.4L7.93356 127.299L7.93437 127.197L7.93519 127.096L7.936 126.995L7.93682 126.893L7.9376 126.792L7.93842 126.691L7.93923 126.59L7.94327 126.463L7.9576 126.266L7.97234 126.087L7.98745 125.926L8.00295 125.78L8.01878 125.65L8.03497 125.533L8.05151 125.427L8.06835 125.333L8.08551 125.249L8.10301 125.173L8.12076 125.104L8.13883 125.041L8.15717 124.982L8.17573 124.929L8.19459 124.88L8.21374 124.835L8.23316 124.793L8.25288 124.756L8.27287 124.723L8.29319 124.693L8.31377 124.666L8.33465 124.642L8.35587 124.621L8.37734 124.603L8.39911 124.587L8.4212 124.574L8.44358 124.563L8.46623 124.555L8.48918 124.55L8.5124 124.546L8.53592 124.546L8.55971 124.547L8.58372 124.551L8.608 124.558L8.63255 124.567L8.65735 124.578L8.68239 124.592L8.70768 124.608L8.73327 124.627L8.75918 124.648L8.78543 124.673L8.81203 124.7L8.83902 124.731L8.86643 124.764L8.89431 124.801L8.92261 124.842L8.9514 124.886L8.98074 124.934L9.01059 124.986L9.04086 125.041L9.07145 125.099L9.10219 125.16L9.1329 125.224L9.1635 125.29L9.19377 125.357L9.22367 125.425L9.25298 125.494L9.28157 125.564L9.30933 125.634L9.33607 125.703L9.36166 125.772L9.38606 125.84L9.40916 125.907L9.43088 125.974L9.45122 126.041L9.47002 126.108L9.48728 126.176L9.50286 126.243L9.51676 126.312L9.52891 126.381" stroke="white"/>
<path d="M5.59613 146.839H5.84325" stroke="white"/>
<path d="M1.17401 146.535L1.22183 145.928L1.26965 145.322L1.31748 144.715L1.3653 144.109L1.41312 143.502L1.46094 142.896L1.50876 142.289L1.55659 141.683L1.60441 141.076L1.65223 140.47L1.70005 139.863L1.74787 139.257L1.7957 138.65L1.81581 138.458L1.82915 138.409L1.84497 138.368L1.86307 138.333L1.88318 138.305L1.905 138.282L1.92824 138.264L1.95272 138.252L1.97813 138.244L2.00419 138.24H2.03064L2.05716 138.244L2.08359 138.251L2.10959 138.261L2.13503 138.274L2.15988 138.29L2.18411 138.307L2.20768 138.326L2.23063 138.347L2.25289 138.369L2.27441 138.393L2.29516 138.417L2.31515 138.442L2.33438 138.467L2.3528 138.493L2.37037 138.519L2.44181 138.697L2.6772 139.331L2.91261 139.964L3.148 140.598L3.38341 141.232L3.61879 141.866L3.85418 142.5L4.08959 143.133L4.32498 143.767L4.56037 144.401L4.79578 145.035L5.03117 145.669L5.26655 146.302L5.50197 146.936" stroke="white"/>
<path d="M7.93811 126.507L8.43649 125.979" stroke="white"/>
<path d="M8.43646 125.979H9.34542" stroke="white"/>
<path d="M9.45402 138.242L9.38354 128.501" stroke="white"/>
<path d="M10.0079 133.122L9.95024 131.395L9.85297 128.482L9.82867 127.753L9.8226 127.571L9.82224 127.56L9.82219 127.558L9.82216 127.558L9.82209 127.557L9.82189 127.556L9.82152 127.553L9.82073 127.549L9.8179 127.53L9.81203 127.492L9.80619 127.455L9.80032 127.42L9.79448 127.385L9.78856 127.351L9.78267 127.317L9.77673 127.285L9.77077 127.253L9.76475 127.221L9.75864 127.191L9.74629 127.131L9.73364 127.072L9.72065 127.016L9.70724 126.96L9.69339 126.905L9.67899 126.85L9.66405 126.795L9.6485 126.739L9.6322 126.683L9.6149 126.627L9.59646 126.569L9.57662 126.51L9.55525 126.449L9.54391 126.419L9.53212 126.388L9.51985 126.356L9.50703 126.324L9.49369 126.292L9.47982 126.259L9.46532 126.226L9.45021 126.192L9.43451 126.158L9.41809 126.123L9.40106 126.088L9.38328 126.052L9.3648 126.015L9.34552 125.978" stroke="white"/>
<path d="M9.38356 128.501L8.51099 127.319" stroke="white"/>
<path d="M9.38354 128.501L9.80043 127.421" stroke="white"/>
<path d="M8.51098 127.319L8.43646 125.979" stroke="white" stroke-linecap="round"/>
<path d="M9.73299 146.574H9.48511" stroke="white"/>
<path d="M9.76331 146.839H9.48511" stroke="white"/>
<path d="M9.12555 141.5L9.14066 141.587L9.1556 141.676L9.17039 141.766L9.18501 141.858L9.1995 141.951L9.21385 142.046L9.22805 142.143L9.2421 142.241L9.25605 142.34L9.26985 142.44L9.28353 142.542L9.29712 142.645L9.31055 142.749L9.32389 142.854L9.3371 142.96L9.35021 143.066L9.36323 143.174L9.37615 143.283L9.38896 143.392L9.40168 143.502L9.41433 143.613L9.42688 143.724L9.4518 143.948L9.47642 144.173L9.50083 144.4L9.54904 144.854L9.57291 145.082L9.59669 145.308L9.59992 145.339" stroke="white" stroke-linecap="round"/>
<path d="M12.0777 126.507L11.5793 125.979" stroke="white"/>
<path d="M11.5793 125.979H10.6703" stroke="white"/>
<path d="M10.8902 141.5L10.8751 141.587L10.8602 141.676L10.8454 141.766L10.8308 141.858L10.8163 141.951L10.8019 142.046L10.7877 142.143L10.7737 142.241L10.7597 142.34L10.7459 142.44L10.7323 142.542L10.7187 142.645L10.7053 142.749L10.6919 142.854L10.6787 142.96L10.6656 143.066L10.6526 143.174L10.6397 143.283L10.6269 143.392L10.6141 143.502L10.6015 143.613L10.5889 143.724L10.564 143.948L10.5394 144.173L10.515 144.4L10.4668 144.854L10.4429 145.082L10.4191 145.308L10.3954 145.533L10.3718 145.757L10.3599 145.868L10.3481 145.979L10.3363 146.089L10.3244 146.198L10.3126 146.306L10.3007 146.414L10.2889 146.52L10.2769 146.626L10.265 146.731L10.253 146.835L10.247 146.886L10.2453 146.899L10.2446 146.906L10.2442 146.91H10.2439H10.2436L10.2408 146.916L10.2375 146.922L10.2343 146.927L10.231 146.931L10.2278 146.935L10.2246 146.939H10.2214H10.2181H10.2115H10.2049H10.1983L10.1849 146.933L10.1586 146.918L10.1332 146.902L10.1086 146.887L10.0847 146.872L10.0616 146.856L10.0393 146.84L10.0176 146.824L9.99677 146.808L9.97658 146.792L9.95708 146.775L9.93825 146.759L9.92008 146.742L9.90255 146.725L9.88567 146.708L9.8694 146.691L9.85372 146.673L9.83866 146.656L9.81021 146.621L9.78401 146.585L9.75985 146.549L9.73769 146.513L9.71733 146.476L9.69872 146.439L9.68171 146.402L9.66623 146.365L9.65215 146.328L9.63934 146.29L9.62768 146.252L9.61705 146.215L9.60736 146.177L9.59847 146.139L9.59031 146.101L9.58271 146.063L9.57909 146.044L9.57746 146.035L9.57665 146.03H9.57655L9.5765 146.03L9.57648 146.03L9.57655 146.026L9.57736 146.003L9.57897 145.958L9.67624 143.045L9.87078 137.218L10.0653 131.392L10.1626 128.479L10.1869 127.751L10.193 127.569L10.1934 127.557L10.1934 127.556L10.1935 127.555V127.555L10.1935 127.555L10.1935 127.554L10.1937 127.553L10.1941 127.551L10.1949 127.546L10.1977 127.527L10.2036 127.489L10.2094 127.453L10.2153 127.417L10.2211 127.382L10.227 127.348L10.2329 127.315L10.2389 127.282L10.2448 127.25L10.2509 127.219L10.257 127.188L10.2693 127.128L10.2819 127.07L10.295 127.013L10.3084 126.957L10.3222 126.902L10.3366 126.847L10.3515 126.792L10.3671 126.737L10.3834 126.681L10.4007 126.624L10.4192 126.566L10.439 126.507L10.4603 126.447L10.4717 126.416L10.4835 126.385L10.4958 126.354L10.5086 126.322L10.5219 126.289L10.5358 126.257L10.5502 126.223L10.5654 126.19L10.5811 126.155L10.5974 126.12L10.6146 126.085L10.6323 126.049L10.6508 126.013L10.6701 125.975" stroke="white" stroke-linecap="round"/>
<path d="M10.5618 138.242L10.6322 128.501" stroke="white"/>
<path d="M10.6322 128.501L11.5048 127.319" stroke="white"/>
<path d="M10.6322 128.501L10.2153 127.421" stroke="white"/>
<path d="M11.5048 127.319L11.5793 125.979" stroke="white" stroke-linecap="round"/>
<path d="M10.2829 146.574H10.5308" stroke="white"/>
<path d="M10.2525 146.839H10.5307" stroke="white"/>
<path d="M17.702 141.5L17.6834 141.443L17.6516 141.381L17.6076 141.315L17.5527 141.25L17.4882 141.189L17.4152 141.134L17.335 141.088L17.2488 141.054L17.1578 141.036L17.0631 141.036L16.9662 141.057L16.868 141.102L16.7051 141.529L16.5343 142L16.3635 142.471L16.1927 142.942L16.0219 143.413L15.8511 143.884L15.6802 144.355L15.5094 144.826L15.3386 145.297L15.1678 145.768L14.997 146.239L14.8262 146.71L14.7831 146.824L14.7749 146.838L14.766 146.852L14.7566 146.864L14.7465 146.875L14.7358 146.885L14.7247 146.895L14.7131 146.904L14.7011 146.911L14.6887 146.918L14.6761 146.924L14.6633 146.93L14.6503 146.934L14.6371 146.938L14.6239 146.942H14.6108H14.5978H14.585L14.5726 146.942L14.5605 146.942H14.5489H14.5379H14.5275H14.5179H14.5018L14.4805 146.932L14.4596 146.912L14.4392 146.882L14.4194 146.844L14.4006 146.799L14.3827 146.747L14.3662 146.69L14.3511 146.629L14.3376 146.566L14.3259 146.5L14.3162 146.434L14.3942 145.698L14.5755 144.157L14.7567 142.616L14.938 141.075L15.1192 139.534L15.3004 137.993L15.4817 136.452L15.6629 134.911L15.8441 133.37L16.0254 131.829L16.2066 130.288L16.3878 128.747L16.5067 127.704L16.5075 127.602L16.5083 127.501L16.5091 127.4L16.5099 127.299L16.5107 127.197L16.5115 127.096L16.5124 126.995L16.5131 126.893L16.514 126.792L16.5148 126.691L16.5156 126.59L16.5196 126.463L16.534 126.266L16.5487 126.087L16.5638 125.926L16.5793 125.78L16.5951 125.65L16.6113 125.533L16.6278 125.427L16.6447 125.333L16.6618 125.249L16.6793 125.173L16.6971 125.104L16.7151 125.041L16.7335 124.982L16.752 124.929L16.7709 124.88L16.79 124.835L16.8095 124.793L16.8292 124.756L16.8492 124.723L16.8695 124.693L16.8901 124.666L16.911 124.642L16.9322 124.621L16.9536 124.603L16.9754 124.587L16.9975 124.574L17.0199 124.563L17.0425 124.555L17.0655 124.55L17.0887 124.546L17.1122 124.546L17.136 124.547L17.16 124.551L17.1843 124.558L17.2089 124.567L17.2337 124.578L17.2587 124.592L17.284 124.608L17.3096 124.627L17.3355 124.648L17.3617 124.673L17.3883 124.7L17.4154 124.731L17.4428 124.764L17.4707 124.801L17.499 124.842L17.5278 124.886L17.5571 124.934L17.5869 124.986L17.6172 125.041L17.6478 125.099L17.6785 125.16L17.7093 125.224L17.7398 125.29L17.7701 125.357L17.8 125.425L17.8293 125.494L17.8579 125.564L17.8857 125.634L17.9124 125.703L17.938 125.772L17.9624 125.84L17.9855 125.907L18.0072 125.974L18.0275 126.041L18.0464 126.108L18.0636 126.176L18.0792 126.243L18.0931 126.312L18.1053 126.381" stroke="white"/>
<path d="M14.1725 146.839H14.4196" stroke="white"/>
<path d="M9.75037 146.535L9.79819 145.928L9.84601 145.322L9.89383 144.715L9.94165 144.109L9.98948 143.502L10.0373 142.896L10.0851 142.289L10.1329 141.683L10.1808 141.076L10.2286 140.47L10.2764 139.863L10.3242 139.257L10.3721 138.65L10.3922 138.458L10.4055 138.409L10.4213 138.368L10.4394 138.333L10.4595 138.305L10.4813 138.282L10.5046 138.264L10.5291 138.252L10.5545 138.244L10.5805 138.24H10.607L10.6336 138.244L10.66 138.251L10.686 138.261L10.7114 138.274L10.7363 138.29L10.7605 138.307L10.7841 138.326L10.807 138.347L10.8293 138.369L10.8508 138.393L10.8716 138.417L10.8916 138.442L10.9108 138.467L10.9292 138.493L10.9467 138.519L11.0182 138.697L11.2536 139.331L11.489 139.964L11.7243 140.598L11.9597 141.232L12.1951 141.866L12.4305 142.5L12.6659 143.133L12.9013 143.767L13.1367 144.401L13.3721 145.035L13.6075 145.669L13.8429 146.302L14.0783 146.936" stroke="white"/>
<path d="M16.5145 126.507L17.0129 125.979" stroke="white"/>
<path d="M17.0128 125.979H17.9218" stroke="white"/>
<path d="M17.702 141.5L17.7171 141.587L17.732 141.676L17.7468 141.766L17.7614 141.858L17.7759 141.951L17.7902 142.046L17.8045 142.143L17.8185 142.241L17.8324 142.34L17.8463 142.44L17.86 142.542L17.8735 142.645L17.887 142.749L17.9003 142.854L17.9135 142.96L17.9266 143.066L17.9396 143.174L17.9526 143.283L17.9654 143.392L17.9781 143.502L17.9907 143.613L18.0033 143.724L18.0282 143.948L18.0528 144.173L18.0772 144.4L18.1254 144.854L18.1493 145.082L18.1731 145.308L18.1968 145.533L18.2205 145.757L18.2323 145.868L18.2442 145.979L18.256 146.089L18.2678 146.198L18.2796 146.306L18.2915 146.414L18.3034 146.52L18.3153 146.626L18.3272 146.731L18.3393 146.835L18.3453 146.886L18.3469 146.899L18.3477 146.906L18.3481 146.91H18.3483H18.3487L18.3515 146.916L18.3547 146.922L18.3579 146.927L18.3612 146.931L18.3644 146.935L18.3677 146.939H18.3709H18.3741H18.3807H18.3873H18.394L18.4073 146.933L18.4336 146.918L18.459 146.902L18.4837 146.887L18.5075 146.872L18.5306 146.856L18.553 146.84L18.5746 146.824L18.5955 146.808L18.6157 146.792L18.6352 146.775L18.654 146.759L18.6722 146.742L18.6897 146.725L18.7066 146.708L18.7228 146.691L18.7385 146.673L18.7536 146.656L18.782 146.621L18.8082 146.585L18.8324 146.549L18.8545 146.513L18.8749 146.476L18.8935 146.439L18.9105 146.402L18.926 146.365L18.9401 146.328L18.9529 146.29L18.9646 146.252L18.9752 146.215L18.9849 146.177L18.9938 146.139L19.0019 146.101L19.0095 146.063L19.0131 146.044L19.0148 146.035L19.0156 146.03H19.0157L19.0157 146.03L19.0158 146.03L19.0157 146.026L19.0149 146.003L19.0133 145.958L18.916 143.045L18.7215 137.218L18.5269 131.392L18.4296 128.479L18.4053 127.751L18.3992 127.569L18.3989 127.557L18.3988 127.556L18.3988 127.555V127.555L18.3988 127.555L18.3987 127.554L18.3985 127.553L18.3982 127.551L18.3974 127.546L18.3945 127.527L18.3887 127.489L18.3828 127.453L18.377 127.417L18.3711 127.382L18.3652 127.348L18.3593 127.315L18.3534 127.282L18.3474 127.25L18.3414 127.219L18.3353 127.188L18.3229 127.128L18.3103 127.07L18.2973 127.013L18.2839 126.957L18.27 126.902L18.2556 126.847L18.2407 126.792L18.2251 126.737L18.2088 126.681L18.1915 126.624L18.173 126.566L18.1532 126.507L18.1318 126.447L18.1205 126.416L18.1087 126.385L18.0964 126.354L18.0836 126.322L18.0703 126.289L18.0564 126.257L18.0419 126.223L18.0268 126.19L18.0111 126.155L17.9947 126.12L17.9777 126.085L17.9599 126.049L17.9414 126.013L17.9221 125.975" stroke="white" stroke-linecap="round"/>
<path d="M18.0304 138.242L17.96 128.501" stroke="white"/>
<path d="M17.96 128.501L17.0874 127.319" stroke="white"/>
<path d="M17.96 128.501L18.3768 127.421" stroke="white"/>
<path d="M17.0873 127.319L17.0128 125.979" stroke="white" stroke-linecap="round"/>
<path d="M18.3093 146.574H18.0615" stroke="white"/>
<path d="M18.3397 146.839H18.0615" stroke="white"/>
<path d="M18.8418 146.535L18.794 145.928L18.7461 145.322L18.6983 144.715L18.6505 144.109L18.6027 143.502L18.5548 142.896L18.507 142.289L18.4592 141.683L18.4114 141.076L18.3636 140.47L18.3157 139.863L18.2679 139.257L18.2201 138.65L18.2 138.458L18.1867 138.409L18.1708 138.368L18.1527 138.333L18.1326 138.305L18.1108 138.282L18.0875 138.264L18.0631 138.252L18.0377 138.244L18.0116 138.24H17.9852L17.9586 138.244L17.9322 138.251L17.9062 138.261L17.8807 138.274L17.8559 138.29L17.8316 138.307L17.8081 138.326L17.7851 138.347L17.7629 138.369L17.7414 138.393L17.7206 138.417L17.7006 138.442L17.6813 138.467L17.663 138.493L17.6454 138.519L17.574 138.697L17.3386 139.331L17.1032 139.964L16.8678 140.598L16.6324 141.232L16.397 141.866L16.1616 142.5L15.9262 143.133L15.6908 143.767L15.4554 144.401L15.22 145.035L14.9846 145.669L14.7492 146.302L14.5138 146.936" stroke="white"/>
<path d="M19.4665 141.5L19.4851 141.443L19.5169 141.381L19.5609 141.315L19.6158 141.25L19.6803 141.189L19.7533 141.134L19.8335 141.088L19.9197 141.054L20.0107 141.036L20.1054 141.036L20.2024 141.057L20.3005 141.102L20.4634 141.529L20.6342 142L20.805 142.471L20.9758 142.942L21.1466 143.413L21.3174 143.884L21.4883 144.355L21.6591 144.826L21.8299 145.297L22.0007 145.768L22.1715 146.239L22.3423 146.71L22.3854 146.824L22.3936 146.838L22.4025 146.852L22.4119 146.864L22.4221 146.875L22.4327 146.885L22.4438 146.895L22.4554 146.904L22.4674 146.911L22.4798 146.918L22.4924 146.924L22.5052 146.93L22.5182 146.934L22.5314 146.938L22.5446 146.942H22.5577H22.5707H22.5835L22.5959 146.942L22.608 146.942H22.6196H22.6306H22.641H22.6506H22.6667L22.688 146.932L22.7089 146.912L22.7293 146.882L22.7491 146.844L22.7679 146.799L22.7858 146.747L22.8023 146.69L22.8174 146.629L22.8309 146.566L22.8426 146.5L22.8523 146.434L22.7743 145.698L22.593 144.157L22.4118 142.616L22.2305 141.075L22.0493 139.534L21.8681 137.993L21.6869 136.452L21.5056 134.911L21.3244 133.37L21.1431 131.829L20.9619 130.288L20.7807 128.747L20.6618 127.704L20.661 127.602L20.6602 127.501L20.6594 127.4L20.6586 127.299L20.6578 127.197L20.657 127.096L20.6562 126.995L20.6554 126.893L20.6545 126.792L20.6537 126.691L20.6529 126.59L20.6489 126.463L20.6346 126.266L20.6198 126.087L20.6047 125.926L20.5892 125.78L20.5734 125.65L20.5572 125.533L20.5407 125.427L20.5238 125.333L20.5067 125.249L20.4892 125.173L20.4714 125.104L20.4534 125.041L20.435 124.982L20.4165 124.929L20.3976 124.88L20.3785 124.835L20.359 124.793L20.3393 124.756L20.3193 124.723L20.299 124.693L20.2784 124.666L20.2575 124.642L20.2363 124.621L20.2149 124.603L20.1931 124.587L20.171 124.574L20.1486 124.563L20.126 124.555L20.103 124.55L20.0798 124.546L20.0563 124.546L20.0325 124.547L20.0085 124.551L19.9842 124.558L19.9596 124.567L19.9348 124.578L19.9098 124.592L19.8845 124.608L19.8589 124.627L19.833 124.648L19.8068 124.673L19.7802 124.7L19.7532 124.731L19.7258 124.764L19.6979 124.801L19.6696 124.842L19.6408 124.886L19.6115 124.934L19.5816 124.986L19.5513 125.041L19.5207 125.099L19.49 125.16L19.4593 125.224L19.4287 125.29L19.3984 125.357L19.3685 125.425L19.3392 125.494L19.3106 125.564L19.2829 125.634L19.2561 125.703L19.2305 125.772L19.2061 125.84L19.183 125.907L19.1613 125.974L19.141 126.041L19.1222 126.108L19.1049 126.176L19.0893 126.243L19.0754 126.312L19.0632 126.381" stroke="white"/>
<path d="M20.654 126.507L20.1556 125.979" stroke="white"/>
<path d="M20.1557 125.979H19.2468" stroke="white"/>
<path d="M19.1381 138.242L19.2086 128.501" stroke="white"/>
<path d="M19.2086 128.501L20.0812 127.319" stroke="white"/>
<path d="M19.2086 128.501L18.7917 127.421" stroke="white"/>
<path d="M20.0812 127.319L20.1557 125.979" stroke="white" stroke-linecap="round"/>
<path d="M18.8592 146.574H19.1071" stroke="white"/>
<path d="M18.8289 146.839H19.1071" stroke="white"/>
<path d="M22.7489 146.839H22.996" stroke="white"/>
<path d="M19.4666 141.5L19.4515 141.587L19.4365 141.676L19.4218 141.766L19.4071 141.858L19.3926 141.951L19.3783 142.046L19.3641 142.143L19.35 142.241L19.3361 142.34L19.3223 142.44L19.3086 142.542L19.2951 142.645L19.2816 142.749L19.2683 142.854L19.2551 142.96L19.242 143.066L19.2289 143.174L19.216 143.283L19.2032 143.392L19.1905 143.502L19.1778 143.613L19.1653 143.724L19.1404 143.948L19.1157 144.173L19.0913 144.4L19.0431 144.854L19.0193 145.082L18.9955 145.308L18.9922 145.339" stroke="white" stroke-linecap="round"/>
<path d="M18.8186 140.14L18.8528 139.863L18.9006 139.257L18.9484 138.65L18.9686 138.458L18.9819 138.409L18.9977 138.368L19.0158 138.333L19.0359 138.305L19.0577 138.282L19.081 138.264L19.1055 138.252L19.1309 138.244L19.1569 138.24H19.1834L19.21 138.244L19.2364 138.251L19.2624 138.261L19.2878 138.274L19.3126 138.29L19.3369 138.307L19.3605 138.326L19.3834 138.347L19.4057 138.369L19.4272 138.393L19.448 138.417L19.468 138.442L19.4872 138.467L19.5056 138.493L19.5232 138.519L19.5946 138.697L19.83 139.331L20.0654 139.964L20.3008 140.598L20.5362 141.232L20.7716 141.866L21.007 142.5L21.2424 143.133L21.4778 143.767L21.7132 144.401L21.9485 145.035L22.184 145.669L22.4193 146.302L22.6548 146.936" stroke="white"/>
<path d="M26.2784 141.5L26.2598 141.443L26.228 141.381L26.184 141.315L26.1291 141.25L26.0646 141.189L25.9916 141.134L25.9114 141.088L25.8252 141.054L25.7342 141.036L25.6396 141.036L25.5426 141.057L25.4445 141.102L25.2815 141.529L25.1107 142L24.9399 142.471L24.7691 142.942L24.5983 143.413L24.4275 143.884L24.2566 144.355L24.0858 144.826L23.915 145.297L23.7442 145.768L23.5734 146.239L23.4026 146.71L23.3595 146.824L23.3513 146.838L23.3425 146.852L23.333 146.864L23.3229 146.875L23.3122 146.885L23.3011 146.895L23.2895 146.904L23.2775 146.911L23.2652 146.918L23.2526 146.924L23.2397 146.93L23.2267 146.934L23.2135 146.938L23.2004 146.942H23.1872H23.1742H23.1615L23.149 146.942L23.1369 146.942H23.1253H23.1143H23.1039H23.0943H23.0783L23.057 146.932L23.036 146.912L23.0156 146.882L22.9958 146.844L22.977 146.799L22.9591 146.747L22.9426 146.69L22.9275 146.629L22.914 146.566L22.9023 146.5L22.8926 146.434L22.9707 145.698L23.1519 144.157L23.3331 142.616L23.5144 141.075L23.6956 139.534L23.8768 137.993L24.0581 136.452L24.2393 134.911L24.4205 133.37L24.6018 131.829L24.783 130.288L24.9643 128.747L25.0831 127.704L25.0839 127.602L25.0847 127.501L25.0855 127.4L25.0863 127.299L25.0871 127.197L25.088 127.096L25.0887 126.995L25.0896 126.893L25.0904 126.792L25.0912 126.691L25.092 126.59L25.096 126.463L25.1104 126.266L25.1251 126.087L25.1402 125.926L25.1557 125.78L25.1715 125.65L25.1877 125.533L25.2043 125.427L25.2211 125.333L25.2383 125.249L25.2558 125.173L25.2735 125.104L25.2916 125.041L25.3099 124.982L25.3285 124.929L25.3474 124.88L25.3665 124.835L25.3859 124.793L25.4056 124.756L25.4256 124.723L25.4459 124.693L25.4665 124.666L25.4874 124.642L25.5086 124.621L25.5301 124.603L25.5519 124.587L25.574 124.574L25.5964 124.563L25.619 124.555L25.642 124.55L25.6652 124.546L25.6887 124.546L25.7125 124.547L25.7365 124.551L25.7608 124.558L25.7853 124.567L25.8101 124.578L25.8352 124.592L25.8604 124.608L25.886 124.627L25.9119 124.648L25.9382 124.673L25.9648 124.7L25.9918 124.731L26.0192 124.764L26.0471 124.801L26.0754 124.842L26.1042 124.886L26.1335 124.934L26.1634 124.986L26.1937 125.041L26.2242 125.099L26.255 125.16L26.2857 125.224L26.3163 125.29L26.3466 125.357L26.3765 125.425L26.4058 125.494L26.4344 125.564L26.4621 125.634L26.4889 125.703L26.5145 125.772L26.5389 125.84L26.562 125.907L26.5837 125.974L26.604 126.041L26.6228 126.108L26.6401 126.176L26.6557 126.243L26.6696 126.312L26.6817 126.381" stroke="white"/>
<path d="M25.0908 126.507L25.5892 125.979" stroke="white"/>
<path d="M25.5892 125.979H26.4982" stroke="white"/>
<path d="M26.2783 141.5L26.2934 141.587L26.3084 141.676L26.3231 141.766L26.3378 141.858L26.3523 141.951L26.3666 142.046L26.3808 142.143L26.3949 142.241L26.4088 142.34L26.4226 142.44L26.4363 142.542L26.4498 142.645L26.4633 142.749L26.4766 142.854L26.4898 142.96L26.5029 143.066L26.516 143.174L26.5289 143.283L26.5417 143.392L26.5544 143.502L26.5671 143.613L26.5796 143.724L26.6045 143.948L26.6291 144.173L26.6535 144.4L26.7018 144.854L26.7256 145.082L26.7494 145.308L26.7731 145.533L26.7968 145.757L26.8086 145.868L26.8205 145.979L26.8323 146.089L26.8441 146.198L26.856 146.306L26.8678 146.414L26.8797 146.52L26.8916 146.626L26.9036 146.731L26.9156 146.835L26.9216 146.886L26.9232 146.899L26.924 146.906L26.9244 146.91H26.9246H26.925L26.9278 146.916L26.931 146.922L26.9343 146.927L26.9375 146.931L26.9407 146.935L26.944 146.939H26.9472H26.9504H26.957H26.9636H26.9703L26.9837 146.933L27.0099 146.918L27.0354 146.902L27.06 146.887L27.0839 146.872L27.107 146.856L27.1294 146.84L27.151 146.824L27.1719 146.808L27.1921 146.792L27.2116 146.775L27.2304 146.759L27.2486 146.742L27.2661 146.725L27.283 146.708L27.2993 146.691L27.3149 146.673L27.33 146.656L27.3585 146.621L27.3847 146.585L27.4088 146.549L27.431 146.513L27.4513 146.476L27.4699 146.439L27.487 146.402L27.5024 146.365L27.5165 146.328L27.5293 146.29L27.541 146.252L27.5516 146.215L27.5613 146.177L27.5702 146.139L27.5784 146.101L27.586 146.063L27.5896 146.044L27.5912 146.035L27.592 146.03H27.5921L27.5922 146.03L27.5922 146.03L27.5921 146.026L27.5913 146.003L27.5897 145.958L27.4924 143.045L27.2979 137.218L27.1033 131.392L27.0061 128.479L26.9818 127.751L26.9757 127.569L26.9753 127.557L26.9753 127.556L26.9753 127.555V127.555L26.9752 127.555L26.9752 127.554L26.975 127.553L26.9746 127.551L26.9738 127.546L26.971 127.527L26.9652 127.489L26.9593 127.453L26.9534 127.417L26.9476 127.382L26.9417 127.348L26.9358 127.315L26.9299 127.282L26.9239 127.25L26.9179 127.219L26.9118 127.188L26.8994 127.128L26.8868 127.07L26.8738 127.013L26.8603 126.957L26.8465 126.902L26.8321 126.847L26.8172 126.792L26.8016 126.737L26.7853 126.681L26.768 126.624L26.7496 126.566L26.7297 126.507L26.7084 126.447L26.697 126.416L26.6852 126.385L26.6729 126.354L26.6602 126.322L26.6468 126.289L26.6329 126.257L26.6185 126.223L26.6034 126.19L26.5877 126.155L26.5712 126.12L26.5542 126.085L26.5364 126.049L26.5179 126.013L26.4987 125.975" stroke="white" stroke-linecap="round"/>
<path d="M26.6068 138.242L26.5363 128.501" stroke="white"/>
<path d="M26.5363 128.501L25.6638 127.319" stroke="white"/>
<path d="M26.5363 128.501L26.9532 127.421" stroke="white"/>
<path d="M25.6638 127.319L25.5892 125.979" stroke="white" stroke-linecap="round"/>
<path d="M26.8858 146.574H26.6379" stroke="white"/>
<path d="M26.9161 146.839H26.6379" stroke="white"/>
<path d="M27.4182 146.535L27.3704 145.928L27.3226 145.322L27.2747 144.715L27.2269 144.109L27.1791 143.502L27.1313 142.896L27.0834 142.289L27.0356 141.683L26.9878 141.076L26.94 140.47L26.8922 139.863L26.8443 139.257L26.7965 138.65L26.7764 138.458L26.7631 138.409L26.7472 138.368L26.7291 138.333L26.709 138.305L26.6872 138.282L26.6639 138.264L26.6395 138.252L26.6141 138.244L26.588 138.24H26.5615L26.535 138.244L26.5086 138.251L26.4826 138.261L26.4572 138.274L26.4323 138.29L26.4081 138.307L26.3845 138.326L26.3616 138.347L26.3393 138.369L26.3178 138.393L26.297 138.417L26.277 138.442L26.2578 138.467L26.2394 138.493L26.2218 138.519L26.1504 138.697L25.915 139.331L25.6796 139.964L25.4442 140.598L25.2088 141.232L24.9734 141.866L24.738 142.5L24.5026 143.133L24.2672 143.767L24.0318 144.401L23.7965 145.035L23.561 145.669L23.3257 146.302L23.0903 146.936" stroke="white"/>
<path d="M9.48453 126.273V98.6653V73.9908V61.6536V61.2681V61.0753V60.9789V60.9668L9.48444 60.9652L9.48421 60.9624L9.4838 60.9569L9.47675 60.87L9.4626 60.6998L9.43437 60.3727L9.40605 60.063L9.37758 59.7699L9.34888 59.4927L9.31975 59.2306L9.29019 58.9828L9.26007 58.7486L9.22925 58.5273L9.19765 58.3181L9.16519 58.1203L9.13174 57.933L9.09725 57.7556L9.06161 57.5874L9.02463 57.4274L8.98632 57.2751L8.94649 57.1296L8.9051 56.9903L8.86204 56.8563L8.81717 56.7269L8.7217 56.4789L8.6179 56.2403L8.50495 56.0052L8.38202 55.7675L8.24844 55.522L8.10443 55.2696L7.95059 55.0141L7.78757 54.7593L7.61603 54.5091L7.4366 54.2674L7.2499 54.0379L7.15403 53.929L7.05659 53.8245L6.95764 53.7251L6.85729 53.6311L6.75561 53.5431L6.65267 53.4614L6.54854 53.3867L6.44336 53.3194L6.33712 53.2599L6.22996 53.2088L6.12194 53.1665L6.01316 53.1335L5.90369 53.1103L5.79357 53.0973L5.68299 53.0953L5.5727 53.1046L5.46301 53.1245L5.35398 53.1542L5.24572 53.1935L5.13824 53.2417L5.0317 53.2984L4.92615 53.3631L4.82165 53.4354L4.71832 53.5148L4.61619 53.6007L4.51537 53.6928L4.41596 53.7904L4.318 53.8932L4.12683 54.1124L3.94247 54.3464L3.76558 54.5913L3.5968 54.8434L3.43674 55.0989L3.2861 55.3538L3.14547 55.6043L3.01547 55.847L2.89596 56.0831L2.78612 56.3187L2.68518 56.5597L2.59229 56.8122L2.54864 56.9446L2.50668 57.082L2.46633 57.2254L2.42753 57.3753L2.39013 57.5326L2.35402 57.698L2.31912 57.8722L2.28537 58.0561L2.25261 58.2503L2.22074 58.4556L2.18968 58.6727L2.15931 58.9025L2.12955 59.1456L2.10032 59.4028L2.07148 59.6749L2.04291 59.9626L2.01456 60.2666L1.98629 60.5877L1.95801 60.9267L1.95641 60.9485L1.9556 60.9594L1.9552 60.9649L1.95508 60.9661V60.9775V61.0015V61.3871V62.1582V63.7003V69.8689V119.218V126.272" stroke="white"/>
<path d="M10.5308 126.272V28.9899" stroke="white"/>
<path d="M26.637 126.272V98.6647V73.9902V61.6529V61.2674V61.0746V60.9782V60.9662L26.6369 60.9646L26.6367 60.9617L26.6363 60.9562L26.6292 60.8694L26.6151 60.6991L26.5869 60.3721L26.5586 60.0624L26.5301 59.7693L26.5013 59.492L26.4722 59.2299L26.4427 58.9821L26.4125 58.748L26.3817 58.5267L26.3501 58.3175L26.3177 58.1196L26.2842 57.9324L26.2497 57.755L26.2141 57.5867L26.1771 57.4267L26.1388 57.2744L26.099 57.129L26.0576 56.9896L26.0145 56.8556L25.9696 56.7262L25.8742 56.4782L25.7704 56.2397L25.6574 56.0045L25.5345 55.7668L25.4009 55.5213L25.2569 55.2689L25.1031 55.0134L24.9401 54.7586L24.7686 54.5085L24.5891 54.2667L24.4025 54.0372L24.3066 53.9283L24.2091 53.8239L24.1102 53.7244L24.0099 53.6304L23.9082 53.5424L23.8053 53.4608L23.7012 53.386L23.5959 53.3187L23.4897 53.2592L23.3826 53.2081L23.2746 53.1658L23.1658 53.1328L23.0563 53.1096L22.9462 53.0966L22.8357 53.0946L22.7254 53.104L22.6157 53.1238L22.5067 53.1536L22.3984 53.1928L22.2909 53.241L22.1844 53.2977L22.0788 53.3625L21.9744 53.4348L21.871 53.5141L21.7689 53.6L21.6681 53.6921L21.5687 53.7897L21.4708 53.8926L21.2796 54.1117L21.0952 54.3457L20.9183 54.5907L20.7496 54.8428L20.5896 55.0982L20.4389 55.3531L20.2983 55.6037L20.1683 55.8463L20.0488 56.0825L19.939 56.3181L19.838 56.5591L19.7451 56.8115L19.7015 56.9439L19.6595 57.0814L19.6192 57.2247L19.5804 57.3746L19.543 57.5319L19.5069 57.6973L19.472 57.8716L19.4382 58.0554L19.4054 58.2496L19.3736 58.4549L19.3425 58.6721L19.3122 58.9018L19.2824 59.145L19.2532 59.4022L19.2243 59.6742L19.1958 59.9619L19.1674 60.2659L19.1391 60.5871L19.1109 60.9261L19.1092 60.9479L19.1085 60.9588L19.108 60.9642L19.1079 60.9654L19.1079 60.9768V61.0008V61.3864V62.1575V63.6996V69.8683V119.217V126.272" stroke="white"/>
<path d="M9.76993 140.25L9.73944 139.863L9.69162 139.257L9.64379 138.65L9.62368 138.458L9.61037 138.409L9.59452 138.368L9.57642 138.333L9.55633 138.305L9.53452 138.282L9.51125 138.264L9.48677 138.252L9.46138 138.244L9.43533 138.24H9.40888L9.3823 138.244L9.35588 138.251L9.32987 138.261L9.30443 138.274L9.27958 138.29L9.25535 138.307L9.23176 138.326L9.20884 138.347L9.18658 138.369L9.16506 138.393L9.1443 138.417L9.12431 138.442L9.10508 138.467L9.08667 138.493L9.06909 138.519L8.99766 138.697L8.76224 139.331L8.52686 139.964L8.29147 140.598L8.05606 141.232L7.82067 141.866L7.58528 142.5L7.34987 143.133L7.11449 143.767L6.8791 144.401L6.64369 145.035L6.4083 145.669L6.17291 146.302L5.9375 146.936" stroke="white"/>
<path d="M10.2924 146.488L10.2979 146.478L10.3165 146.442L10.3335 146.404L10.349 146.367L10.3631 146.33L10.3759 146.292L10.3875 146.255L10.3982 146.217L10.4079 146.179L10.4167 146.141L10.4249 146.103L10.4325 146.066L10.4361 146.047L10.4377 146.037L10.4385 146.032H10.4386L10.4387 146.032L10.4387 146.032L10.4386 146.028L10.4379 146.005L10.4362 145.96L10.4155 145.339" stroke="white"/>
<path d="M9.72333 146.488L9.72698 146.52L9.73888 146.626L9.75084 146.731L9.76284 146.835L9.76886 146.886L9.77046 146.899L9.77127 146.905L9.77164 146.91H9.77186H9.77223L9.77507 146.916L9.7783 146.922L9.78153 146.927L9.78476 146.931L9.78799 146.935L9.79121 146.939H9.79444H9.79767H9.80426H9.81089H9.81759L9.83095 146.933L9.8572 146.918L9.88267 146.902L9.90729 146.887L9.93116 146.872L9.95425 146.856L9.97664 146.84L9.99825 146.824L10.0085 146.816" stroke="white"/>
<path d="M18.5842 133.122L18.6419 131.395L18.7392 128.482L18.7635 127.753L18.7695 127.571L18.7699 127.56L18.77 127.558L18.77 127.558V127.558L18.77 127.557L18.7701 127.557L18.7702 127.556L18.7706 127.553L18.7714 127.549L18.7742 127.53L18.7801 127.492L18.786 127.455L18.7918 127.42L18.7977 127.385L18.8036 127.351L18.8095 127.317L18.8154 127.285L18.8214 127.253L18.8274 127.221L18.8335 127.191L18.8458 127.131L18.8585 127.072L18.8715 127.016L18.8849 126.96L18.8988 126.905L18.9131 126.85L18.9281 126.795L18.9436 126.739L18.96 126.683L18.9772 126.627L18.9957 126.569L19.0155 126.51L19.0369 126.449L19.0482 126.419L19.06 126.388L19.0723 126.356L19.0851 126.324L19.0984 126.292L19.1123 126.259L19.1268 126.226L19.1419 126.192L19.1576 126.158L19.174 126.123L19.191 126.088L19.2088 126.052L19.2273 126.015L19.2466 125.978" stroke="white"/>
<path d="M18.8689 146.488L18.8652 146.52L18.8533 146.626L18.8414 146.731L18.8294 146.835L18.8234 146.886L18.8217 146.899L18.8209 146.905L18.8206 146.91H18.8203H18.82L18.8171 146.916L18.8139 146.922L18.8107 146.927L18.8074 146.931L18.8042 146.935L18.801 146.939H18.7978H18.7945H18.7879H18.7813H18.7747L18.7613 146.933L18.735 146.918L18.7096 146.902L18.685 146.887L18.6611 146.872L18.638 146.856L18.6156 146.84L18.594 146.824L18.5837 146.816" stroke="white"/>
<path d="M18.2997 146.488L18.2943 146.478L18.2757 146.442L18.2587 146.404L18.2432 146.367L18.2291 146.33L18.2163 146.292L18.2046 146.255L18.194 146.217L18.1843 146.179L18.1754 146.141L18.1673 146.103L18.1597 146.066L18.1561 146.047L18.1544 146.037L18.1536 146.032H18.1535L18.1535 146.032L18.1534 146.032L18.1535 146.028L18.1543 146.005L18.1559 145.96L18.1767 145.339" stroke="white"/>
<path d="M9.48511 60.3926C9.66882 60.4331 9.85955 60.4291 10.0414 60.381C10.2233 60.3329 10.391 60.2421 10.5308 60.1161" stroke="white"/>
<path d="M10.5308 61.0972C10.1951 60.9813 9.83927 60.9351 9.48511 60.9613" stroke="white"/>
<path d="M18.0615 60.1161C18.2012 60.2421 18.3689 60.3329 18.5508 60.381C18.7327 60.4291 18.9234 60.4331 19.1071 60.3926" stroke="white"/>
<path d="M19.1071 60.9613C18.7529 60.9351 18.3972 60.9813 18.0615 61.0972" stroke="white"/>
<path fill-rule="evenodd" clip-rule="evenodd" d="M14.9122 58.291C14.8801 58.2925 14.85 58.3068 14.8284 58.3306C14.8068 58.3545 14.7955 58.3859 14.7971 58.418C14.7986 58.4501 14.8129 58.4803 14.8367 58.5019C14.8605 58.5235 14.892 58.5347 14.9241 58.5331H18.3254C18.3417 58.5338 18.358 58.5311 18.3732 58.5253C18.3885 58.5195 18.4024 58.5107 18.4141 58.4994C18.4259 58.4881 18.4352 58.4745 18.4416 58.4595C18.448 58.4445 18.4513 58.4284 18.4513 58.4121C18.4513 58.3958 18.448 58.3796 18.4416 58.3646C18.4352 58.3496 18.4259 58.3361 18.4141 58.3247C18.4024 58.3134 18.3885 58.3046 18.3732 58.2988C18.358 58.293 18.3417 58.2903 18.3254 58.291H14.9241C14.9201 58.2908 14.9162 58.2908 14.9122 58.291Z" fill="white" stroke="white" stroke-linecap="round" stroke-linejoin="round"/>
<path fill-rule="evenodd" clip-rule="evenodd" d="M19.025 58.7576L18.32 58.3024V58.7576H19.025Z" fill="#F0F0F0" stroke="white" stroke-linecap="round" stroke-linejoin="round"/>
<path fill-rule="evenodd" clip-rule="evenodd" d="M10.2369 58.291C10.2049 58.2928 10.1748 58.3072 10.1534 58.331C10.1319 58.3549 10.1208 58.3863 10.1225 58.4184C10.1241 58.4504 10.1385 58.4805 10.1623 58.502C10.1861 58.5235 10.2174 58.5347 10.2495 58.5332H13.6509C13.6672 58.5338 13.6834 58.5311 13.6987 58.5253C13.7139 58.5195 13.7278 58.5107 13.7396 58.4994C13.7513 58.4881 13.7607 58.4745 13.7671 58.4595C13.7735 58.4445 13.7767 58.4284 13.7767 58.4121C13.7767 58.3958 13.7735 58.3796 13.7671 58.3646C13.7607 58.3496 13.7513 58.3361 13.7396 58.3248C13.7278 58.3135 13.7139 58.3046 13.6987 58.2988C13.6834 58.293 13.6672 58.2904 13.6509 58.291H10.2495C10.2453 58.2908 10.2411 58.2908 10.2369 58.291Z" fill="white" stroke="white" stroke-linecap="round" stroke-linejoin="round"/>
<path fill-rule="evenodd" clip-rule="evenodd" d="M9.54974 58.7576L10.2548 58.3024V58.7576H9.54974Z" fill="#F0F0F0" stroke="white" stroke-linecap="round" stroke-linejoin="round"/>
<path d="M22.9132 58.7591H5.6983V59.1375H22.9132V58.7591Z" fill="#F7F7F7" stroke="white" stroke-linecap="round" stroke-linejoin="round"/>
<path d="M9.48508 62.1823H1.95435" stroke="white"/>
<path d="M10.5308 62.1841H18.0615" stroke="white"/>
<path d="M26.6378 62.1823H19.1071" stroke="white"/>
<path d="M15.3407 59.1313L14.8926 58.3173H13.6822L13.2342 59.1313" stroke="white" stroke-linecap="round" stroke-linejoin="round"/>
<rect x="6.25037" y="148.414" width="2.01937" height="0.807746" fill="white"/>
<circle cx="3.62516" cy="148.616" r="0.60581" fill="white"/>
<circle cx="4.83677" cy="148.616" r="0.60581" fill="white"/>
<circle cx="6.45231" cy="148.616" r="0.60581" fill="white"/>
<circle cx="12.1065" cy="148.616" r="0.60581" fill="white"/>
<circle cx="13.722" cy="148.616" r="0.60581" fill="white"/>
<circle cx="14.9336" cy="148.616" r="0.60581" fill="white"/>
<circle cx="16.1452" cy="148.616" r="0.60581" fill="white"/>
<circle cx="20.9917" cy="148.616" r="0.60581" fill="white"/>
<circle cx="22.2033" cy="148.616" r="0.60581" fill="white"/>
<circle cx="23.8188" cy="148.616" r="0.60581" fill="white"/>
<circle cx="24.6266" cy="148.616" r="0.60581" fill="white"/>
</svg>
