<svg width="24" height="150" viewBox="0 0 24 150" fill="none" xmlns="http://www.w3.org/2000/svg">
<path fill-rule="evenodd" clip-rule="evenodd" d="M11.074 0.305661C10.935 0.459079 10.442 1.21615 9.97843 1.98825C9.08517 3.47608 8.99436 3.54935 7.12952 4.28763C6.49684 4.53811 6.08402 4.81865 5.86102 5.14928C5.51837 5.65712 3.6761 10.4826 3.78384 10.5897C3.81704 10.6228 4.43405 10.3736 5.15443 10.0348C6.43545 9.43307 6.89711 9.30032 6.88959 9.53702C6.88771 9.60152 6.81818 9.93591 6.73549 10.2803C6.03265 13.204 5.80528 19.4134 5.80027 35.8071L5.79713 48.1832L3.35536 54.593C-0.222084 63.9859 0.00280513 63.1938 0.00280513 66.3867V69.0643H0.431897C0.776425 69.0643 1.34521 68.5809 3.32906 66.6003L5.79713 64.1368V67.1482C5.79713 69.5452 5.75454 70.1602 5.58979 70.1602C5.47516 70.1602 5.22898 70.323 5.04168 70.5227C4.6082 70.9836 4.5205 73.2911 4.93581 73.2911C5.13125 73.2911 5.17072 73.5955 5.17072 75.0915C5.17072 76.7872 5.18888 76.8918 5.48393 76.8918C5.79588 76.8918 5.79713 76.9963 5.79713 106.977V137.062L5.3361 137.465C4.74539 137.981 2.97827 144.171 2.97827 145.726V146.649L4.3877 147.652C5.58728 148.505 5.79713 148.719 5.79713 149.093C5.79713 149.424 5.8723 149.53 6.10533 149.53C6.31518 149.53 6.38471 149.605 6.32332 149.765C6.24439 149.971 6.91027 150 11.7481 150C16.5859 150 17.2517 149.971 17.1728 149.765C17.1114 149.605 17.1809 149.53 17.3908 149.53C17.6257 149.53 17.699 149.424 17.699 149.083C17.699 148.698 17.8944 148.498 19.1084 147.643L20.5179 146.65V145.747C20.5179 144.215 18.7332 137.974 18.1525 137.476L17.6959 137.085L17.6977 106.989C17.699 80.3408 17.7259 76.8918 17.9339 76.8918C18.1293 76.8918 18.1688 76.5874 18.1688 75.0915C18.1688 73.3957 18.187 73.2911 18.482 73.2911C18.9894 73.2911 18.9487 70.9849 18.4325 70.5008C18.2333 70.3136 17.9865 70.1602 17.8844 70.1602C17.7478 70.1602 17.699 69.3662 17.699 67.1482V64.1368L20.1671 66.6003C22.1509 68.5809 22.7197 69.0643 23.0642 69.0643H23.4933V66.5145C23.4933 63.3121 23.6192 63.7673 20.3945 55.288L17.7453 48.3216L17.6432 32.8008C17.5349 16.2448 17.3827 12.6611 16.6698 9.82194C16.5301 9.26525 16.7694 9.29594 18.3417 10.0348C19.0621 10.3736 19.676 10.626 19.706 10.5965C19.7731 10.5295 18.0968 5.96709 17.7811 5.35592C17.5023 4.81739 16.8189 4.38532 15.6631 4.01774C14.5982 3.67835 14.3853 3.49612 13.767 2.39152C12.5104 0.150365 11.7487 -0.440137 11.074 0.305661ZM12.6207 1.3846C13.6862 2.98953 15.4696 7.13306 16.059 9.37546C16.7813 12.1194 17.0293 15.4283 17.1471 23.8612L17.2355 30.2403H11.7512H6.26694L6.27071 26.1312C6.28324 13.1383 6.90149 9.13438 9.80304 3.26318C11.2851 0.263707 11.6954 -0.00931427 12.6207 1.3846ZM10.8366 3.0797C10.1896 3.62324 9.50989 4.73661 8.93297 6.19502C8.01089 8.52572 8.37482 8.87138 11.7481 8.87138C15.2911 8.87138 15.6162 8.42615 14.223 5.48554C13.0216 2.95071 11.9203 2.16796 10.8366 3.0797ZM12.6576 3.74472C13.5553 4.69403 14.7611 7.51066 14.4686 7.97467C14.1466 8.48439 10.2541 8.7142 9.39901 8.27399C8.35541 7.73609 10.457 3.15735 11.7481 3.15735C11.9548 3.15735 12.3344 3.40219 12.6576 3.74472ZM8.23137 5.70158C7.86679 6.58389 7.44649 7.67597 7.29677 8.12808C7.10259 8.71358 6.9441 8.94965 6.74302 8.94965C6.5883 8.94965 6.06086 9.13313 5.571 9.3573C4.41903 9.88456 4.42968 9.94092 5.24965 7.71229C6.25442 4.98208 6.17924 5.07038 8.05974 4.40097C8.4951 4.2463 8.86029 4.11418 8.87219 4.10791C8.88347 4.10165 8.59531 4.81865 8.23137 5.70158ZM16.713 4.93387C17.2542 5.21377 17.4384 5.55881 18.311 7.93146C19.0395 9.91274 19.0483 9.86202 18.0642 9.41366C17.6483 9.22393 17.1108 9.02417 16.8702 8.96969C16.4888 8.8839 16.3766 8.71107 15.9933 7.61899C15.7515 6.93017 15.3418 5.86314 15.0825 5.24759L14.6108 4.12858L15.4245 4.40849C15.8724 4.56253 16.4518 4.79861 16.713 4.93387ZM17.2292 47.3823V64.0548H14.8062H12.3826L12.3394 56.233C12.2918 47.6291 12.2454 47.2208 11.4248 48.2214C11.1342 48.5759 11.1216 48.909 11.1216 56.3231V64.0548H8.69429H6.26694V47.3823V30.7099H11.7481H17.2292V47.3823ZM11.9047 58.6632C11.9047 65.18 11.8508 68.5947 11.7481 68.5947C11.6453 68.5947 11.5915 65.1475 11.5915 58.5662C11.5915 51.9204 11.6441 48.5709 11.7481 48.6347C11.8495 48.6973 11.9047 52.2109 11.9047 58.6632ZM3.25577 66.0473C1.85636 67.4481 0.651778 68.5947 0.579114 68.5947C0.50645 68.5947 0.471992 67.3792 0.502686 65.8945L0.55843 63.1938L3.13864 56.4158L5.71883 49.6379L5.75955 56.5686L5.80027 63.5L3.25577 66.0473ZM20.4809 56.7753L22.9308 63.1938L22.9928 65.8945C23.0266 67.3792 22.9953 68.5947 22.9233 68.5947C22.8512 68.5947 21.646 67.4506 20.2454 66.0523L17.699 63.5106L17.709 56.5423C17.7159 51.75 17.7673 49.6961 17.875 49.9654C17.9602 50.1808 19.1335 53.2448 20.4809 56.7753ZM11.1567 66.7556L11.1999 68.9861H11.7481H12.2962L12.3394 66.7556L12.3833 64.5244H14.8062H17.2292V67.3423V70.1602H11.7481H6.26694V67.3423V64.5244H8.68992H11.1129L11.1567 66.7556ZM5.79713 70.8402C5.79713 70.9561 5.65619 71.1784 5.48393 71.3343C5.11371 71.6693 4.99531 71.1809 5.35863 70.8177C5.60669 70.5697 5.79713 70.5791 5.79713 70.8402ZM11.2783 71.6424C11.2783 72.4452 11.2332 72.638 11.0596 72.571C10.4176 72.3249 10.0254 73.4496 10.0254 75.5367V77.518H11.7481H13.4707V75.5505C13.4707 73.4909 13.0642 72.3306 12.4283 72.5742C12.2655 72.6368 12.2179 72.4264 12.2179 71.6424V70.6298H14.7235H17.2292V108.28V145.93H14.8087H12.3889L12.3425 141.709C12.2912 137.023 12.1615 136.4 11.4248 137.298C11.1423 137.643 11.1216 137.945 11.1216 141.799V145.93H8.69429H6.26694V108.28V70.6298H8.7726H11.2783V71.6424ZM18.1375 70.8177C18.2496 70.9298 18.3141 71.3881 18.2972 71.953C18.2715 72.8209 18.264 72.8384 18.2108 72.1684C18.1788 71.7664 18.0504 71.3531 17.9258 71.2491C17.684 71.0487 17.6151 70.6298 17.8243 70.6298C17.8932 70.6298 18.0341 70.7144 18.1375 70.8177ZM5.75704 75.2875C5.7276 75.9544 5.7038 75.4083 5.7038 74.0739C5.7038 72.7395 5.7276 72.1934 5.75704 72.8609C5.78649 73.5278 5.78649 74.6199 5.75704 75.2875ZM12.7566 73.4402C12.9508 73.6005 13.0009 73.9944 13.0009 75.3457V77.0483H11.7481H10.4952V75.4027C10.4952 74.4916 10.571 73.6349 10.665 73.4846C10.8717 73.1534 12.3726 73.1214 12.7566 73.4402ZM11.9047 143.043C11.9047 146.429 11.8495 148.278 11.7481 148.278C11.6466 148.278 11.5915 146.396 11.5915 142.946C11.5915 139.431 11.6447 137.647 11.7481 137.711C11.8477 137.772 11.9047 139.722 11.9047 143.043ZM5.79713 142.962V148.134L4.66206 147.295C3.13361 146.167 3.1236 146.009 4.30689 141.686C5.77208 136.334 5.79713 136.355 5.79713 142.962ZM18.1531 138.142C18.2271 138.335 18.6868 139.952 19.1761 141.735C20.3619 146.055 20.3556 146.16 18.8347 147.285L17.699 148.125V142.957C17.699 137.963 17.776 137.145 18.1531 138.142ZM11.1216 147.573V148.748H11.7481H12.3745V147.573V146.399H14.8018H17.2292V147.73V149.061H11.7481H6.26694V147.73V146.399H8.69429H11.1216V147.573ZM7.87243 149.641C7.67824 149.678 7.36128 149.678 7.16772 149.641C6.97353 149.604 7.13202 149.573 7.51977 149.573C7.90752 149.573 8.066 149.604 7.87243 149.641ZM9.82998 149.642C9.59256 149.678 9.20544 149.678 8.96866 149.642C8.73125 149.607 8.92544 149.577 9.39901 149.577C9.87258 149.577 10.0668 149.607 9.82998 149.642ZM12.2573 149.644C11.9773 149.678 11.5188 149.678 11.2394 149.644C10.9594 149.609 11.188 149.58 11.7481 149.58C12.3081 149.58 12.5367 149.609 12.2573 149.644ZM14.4517 149.641C14.2587 149.677 13.9067 149.679 13.6687 149.642C13.4306 149.607 13.5885 149.576 14.0188 149.575C14.4498 149.574 14.644 149.604 14.4517 149.641ZM16.329 149.641C16.1348 149.678 15.8179 149.678 15.6243 149.641C15.4301 149.604 15.5886 149.573 15.9764 149.573C16.3641 149.573 16.5226 149.604 16.329 149.641Z" fill="white"/>
<rect x="11.4458" y="46.0844" width="0.60241" height="20.4819" fill="white"/>
</svg>
