<svg width="120" height="39" viewBox="0 0 120 39" fill="none" xmlns="http://www.w3.org/2000/svg">
<path d="M47.2453 34.9975H41.8918V33.6692H48.795C48.6138 33.1057 48.0302 32.5824 47.0038 32.5824H41.9925C40.8453 32.5824 40.1811 33.005 40.1811 33.9308V34.917C40.1811 35.722 40.8654 36.1849 41.8717 36.1849H47.2855V37.5937H40C40.1811 38.3585 40.7648 38.761 41.8113 38.761H47.2654C48.4126 38.761 48.9761 38.3182 48.9761 37.3723V36.3862C48.9761 35.5208 48.3119 35.0579 47.2453 34.9975ZM58.1736 32.6025H51.5723V38.7811H53.444V36.4063H58.3145C59.6629 36.4063 60.4075 35.9434 60.4075 34.8566V34.1723C60.3874 33.166 59.5421 32.6025 58.1736 32.6025ZM58.7774 34.5748C58.7774 35.0176 58.6969 35.2591 57.9723 35.2591H53.444L53.4642 33.6491H57.8918C58.6969 33.6491 58.7975 33.8906 58.7975 34.3132V34.5748H58.7774ZM66.6264 36.366H62.6415L61.6553 37.4126H67.4113L68.3975 38.7811H70.6113L65.8415 32.3409L64.7145 33.7296L66.6264 36.366ZM74.1937 33.6692H81.1975C81.0163 32.9447 80.312 32.5824 79.3057 32.5824H74.073C73.1673 32.5824 72.3019 32.9447 72.3019 33.9308V37.3925C72.3019 38.3786 73.1673 38.7409 74.073 38.7409H79.366C80.5736 38.7409 80.9962 38.3987 81.1975 37.5736H74.1937V33.6692ZM89.4088 35.722V34.6755H83.7535V38.7811H92.1057V37.6138H85.6453V35.722H89.4088ZM83.9547 32.6025H92.3874V33.6893H83.9547V32.6025ZM97.5799 32.6025H94.6415L98.1031 35.1384C98.6063 34.7962 99.1899 34.434 99.7132 34.1321L97.5799 32.6025ZM101.847 35.7623C101.343 36.1044 100.84 36.4868 100.357 36.8491L102.974 38.761H105.932L101.847 35.7623Z" fill="white"/>
<path d="M120 29C103.899 29.9258 96.4528 36.8088 94.7824 38.439L94.4402 38.761H97.4189C105.469 30.6906 117.042 29.2616 120 29Z" fill="white"/>
<path d="M22.72 5.78C18.54 5.78 15.14 9.18 15.14 13.36V14.3C15.14 18.48 18.52 21.88 22.72 21.88C26.92 21.88 30.3 18.5 30.3 14.3V13.36C30.3 9.16 26.9 5.78 22.72 5.78ZM25.78 14.28C25.78 15.98 24.42 17.34 22.72 17.34C21.02 17.34 19.66 15.98 19.66 14.28V13.34C19.66 11.64 21.04 10.28 22.72 10.28C24.4 10.28 25.78 11.66 25.78 13.34V14.28Z" fill="white"/>
<path d="M8.4 6.2H5.72C2.56 6.2 0 8.76 0 11.92V21.6H4.52V11.92C4.52 11.24 5.06 10.7 5.74 10.7H8.36C9.04 10.7 9.58 11.24 9.58 11.92V21.6H14.1V11.92C14.1 8.78 11.54 6.22 8.4 6.2Z" fill="white"/>
<path d="M62.12 6.19999H58.2V0.319992H53.68V6.19999H46.82V0.319992H42.34V6.17999H37.04C36.9 6.17999 36.74 6.17999 36.6 6.19999H36.48C33.54 6.49999 31.32 8.95999 31.3 11.9V21.66H35.82V11.9C35.82 11.3 36.24 10.8 36.84 10.7H42.32V15.94C42.32 16.14 42.34 16.36 42.36 16.56L42.38 16.64C42.74 19.5 45.18 21.66 48.06 21.66H52.74V17.14H48.06C47.5 17.14 47 16.76 46.88 16.2V10.68H53.74V21.64H58.26V10.7H62.18C62.86 10.7 63.4 11.24 63.4 11.92V21.6H67.92V11.92C67.86 8.77999 65.3 6.19999 62.12 6.19999Z" fill="white"/>
<path d="M80.48 6.16L76.22 15.52L71.96 6.16H67L73.34 20.06L73.36 20.08C74.1 21.66 75.98 22.36 77.58 21.62C78.26 21.3 78.8 20.76 79.12 20.08L85.46 6.16H80.48Z" fill="white"/>
<path d="M91.64 5.78C87.46 5.78 84.06 9.18 84.06 13.36V14.3C84.06 18.48 87.44 21.88 91.62 21.88C95.8 21.88 99.2 18.5 99.2 14.32C99.2 14.32 99.2 14.32 99.2 14.3V13.36C99.22 9.16 95.82 5.78 91.64 5.78ZM94.7 14.28C94.7 15.98 93.34 17.34 91.64 17.34C89.94 17.34 88.58 15.98 88.58 14.28V13.34C88.58 11.64 89.94 10.28 91.64 10.28C93.34 10.28 94.7 11.64 94.7 13.34V14.28Z" fill="white"/>
<path d="M104.82 0.319992H100.3V21.66H104.82V0.319992Z" fill="white"/>
<path d="M117.16 10.72V6.19999H110.72V0.319992H106.2L106.16 15.94C106.16 16.14 106.18 16.36 106.2 16.56L106.22 16.64C106.58 19.5 109.02 21.66 111.9 21.66H117.1V17.14H111.9C111.34 17.14 110.84 16.76 110.72 16.2V10.68H117.16V10.72Z" fill="white"/>
<path d="M118.98 1.42C118.98 1.24 118.9 1.04 118.76 0.920001C118.58 0.780001 118.4 0.779999 118.14 0.779999H117.5V2.78H117.88V2.04H118.22L118.62 2.78H119.04L118.6 1.96C118.82 1.9 118.98 1.66 118.98 1.42ZM118.24 1.72C118.16 1.72 118.12 1.72 118 1.72H117.88V1.1H118.06C118.2 1.08 118.32 1.1 118.46 1.14C118.56 1.2 118.62 1.3 118.62 1.4C118.62 1.58 118.48 1.72 118.32 1.72C118.26 1.72 118.26 1.72 118.24 1.72Z" fill="white"/>
<path d="M118.18 0C117.18 0 116.36 0.820001 116.36 1.82C116.36 2.82 117.18 3.64 118.18 3.64C119.18 3.64 120 2.82 120 1.82C120 0.820001 119.18 0 118.18 0ZM118.18 3.32C117.34 3.32 116.68 2.64 116.68 1.82C116.68 1 117.36 0.320001 118.18 0.320001C119 0.320001 119.68 1 119.68 1.82C119.68 2.64 119.02 3.32 118.18 3.32Z" fill="white"/>
</svg>
